<svg xmlns="http://www.w3.org/2000/svg" width="61" height="61" viewBox="0 0 61 61"><defs><style>.a{fill:#2a4795;}.b{fill:#261f64;}.c{fill:#17173a;}.d{fill:#fff;}.e{fill:#e2e2e2;}</style></defs><g transform="translate(-273.409 -281.861)"><g transform="translate(273.409 281.861)"><path class="a" d="M329.609,333.209h0a4.912,4.912,0,0,1-4.852,4.852h0a5.034,5.034,0,0,1-3.6-1.525l-15.527-16.914a1.339,1.339,0,0,1,0-1.94l3.6-3.6a1.339,1.339,0,0,1,1.941,0l16.914,15.666A4.728,4.728,0,0,1,329.609,333.209Z" transform="translate(-268.609 -277.061)"/><rect class="b" width="3.882" height="5.823" transform="translate(33.307 36.052) rotate(-45)"/><path class="c" d="M307.17,315.622l.693.693,1.387-1.387-4.16-4.158-2.773,2.773,2.08,2.08h0A1.852,1.852,0,0,1,307.17,315.622Z" transform="translate(-269.045 -277.497)"/><circle class="d" cx="16.636" cy="16.636" r="16.636" transform="translate(4.159 4.159)"/><path class="e" d="M284.917,303.5a11.766,11.766,0,0,1,10.12-10.12h.139a2.041,2.041,0,0,0,.277-4.02,13.982,13.982,0,0,0-4.159-.139,12.352,12.352,0,0,0-10.4,10.4,10.422,10.422,0,0,0,.138,4.158c.417,2.357,3.744,2.08,4.021-.277C284.917,303.639,284.917,303.5,284.917,303.5Z" transform="translate(-272.302 -280.764)"/><path class="e" d="M278.409,303.5a16.684,16.684,0,0,1,16.636-16.636,17.365,17.365,0,0,1,11.092,4.16,16.446,16.446,0,0,0-12.477-5.546,16.686,16.686,0,0,0-16.637,16.637,16.942,16.942,0,0,0,5.546,12.477A17.366,17.366,0,0,1,278.409,303.5Z" transform="translate(-272.864 -281.316)"/><path class="c" d="M294.2,281.861a20.8,20.8,0,1,0,20.8,20.8A20.767,20.767,0,0,0,294.2,281.861Zm0,37.431a16.636,16.636,0,1,1,16.636-16.636A16.685,16.685,0,0,1,294.2,319.292Z" transform="translate(-273.409 -281.861)"/><path class="b" d="M327.854,329.031l-.831-.693a4.843,4.843,0,0,1,1.108,3.05h0a1.99,1.99,0,0,1-3.466,1.248l-14.557-14.557a2.009,2.009,0,0,0-2.911,0l-1.387,1.387,15.112,16.22a5.561,5.561,0,0,0,3.05,1.663,4.853,4.853,0,0,0,5.406-5.406A4.318,4.318,0,0,0,327.854,329.031Z" transform="translate(-268.518 -276.488)"/></g></g></svg>