<svg xmlns="http://www.w3.org/2000/svg" width="65.091" height="65.089" viewBox="0 0 65.091 65.089"><defs><style>.a{fill:#261f64;}.b{fill:#2a4795;}</style></defs><g transform="translate(-180.872 -278.909)"><path class="a" d="M217.7,301.239a15.332,15.332,0,0,0,0-4.576l2.594-1.869a1.722,1.722,0,0,0,.534-2.021l-1.449-3.547a1.739,1.739,0,0,0-1.831-1.03l-3.166.5a16.085,16.085,0,0,0-3.2-3.241l.458-3.128a1.691,1.691,0,0,0-.992-1.831l-3.546-1.448a1.72,1.72,0,0,0-2.022.534L203.2,282.17a14.465,14.465,0,0,0-2.861-.152,13.08,13.08,0,0,0-1.716.152l-1.869-2.593a1.719,1.719,0,0,0-2.021-.534l-3.547,1.448a1.769,1.769,0,0,0-1.029,1.831l.5,3.166a16.14,16.14,0,0,0-3.241,3.2l-3.128-.5a1.767,1.767,0,0,0-1.83,1.03l-1.449,3.547a1.719,1.719,0,0,0,.534,2.021l2.593,1.869a15.411,15.411,0,0,0,0,4.577l-2.593,1.868a1.719,1.719,0,0,0-.534,2.021l1.449,3.547a1.689,1.689,0,0,0,1.83.992l3.166-.458a16.145,16.145,0,0,0,3.2,3.243l-.5,3.126a1.77,1.77,0,0,0,1.029,1.831l3.547,1.449a1.707,1.707,0,0,0,2.021-.535l1.869-2.593c.572.076,1.145.152,1.716.191a18.1,18.1,0,0,0,2.861-.191l1.868,2.593a1.636,1.636,0,0,0,2.022.535l3.546-1.449a1.691,1.691,0,0,0,.992-1.831l-.458-3.166a17.168,17.168,0,0,0,3.243-3.2l3.126.458a1.665,1.665,0,0,0,1.831-.992l1.449-3.547a1.722,1.722,0,0,0-.534-2.021Zm-7.971,1.373a9.516,9.516,0,0,1-8.81,5.873,2.9,2.9,0,0,1-.572-.038,9.512,9.512,0,0,1-8.238-13.158,9.719,9.719,0,0,1,5.149-5.149,8.7,8.7,0,0,1,3.09-.725,9.56,9.56,0,0,1,4.233.725,9.715,9.715,0,0,1,5.149,5.149A9.385,9.385,0,0,1,209.725,302.613Z"/><path class="b" d="M218.767,303.108a1.721,1.721,0,0,1,.535,2.021l-1.449,3.547a1.667,1.667,0,0,1-1.831.992l-3.126-.458a17.2,17.2,0,0,1-3.243,3.2l.458,3.166a1.691,1.691,0,0,1-.992,1.831l-3.546,1.449a1.636,1.636,0,0,1-2.022-.535l-1.868-2.593a18.1,18.1,0,0,1-2.861.191v-7.476a2.9,2.9,0,0,0,.572.038,9.516,9.516,0,0,0,8.81-5.873,9.385,9.385,0,0,0,0-7.323,9.715,9.715,0,0,0-5.149-5.149,9.561,9.561,0,0,0-4.233-.725v-7.4a14.465,14.465,0,0,1,2.861.152l1.868-2.593a1.72,1.72,0,0,1,2.022-.534l3.546,1.448a1.691,1.691,0,0,1,.992,1.831l-.458,3.128a16.085,16.085,0,0,1,3.2,3.241l3.166-.5a1.738,1.738,0,0,1,1.831,1.03l1.449,3.547a1.722,1.722,0,0,1-.534,2.021l-2.594,1.869a15.333,15.333,0,0,1,0,4.576Z" transform="translate(1.523)"/><path class="a" d="M242.854,317.855l-3.128-.763a17.005,17.005,0,0,0-1.715-4.234l1.639-2.708a1.679,1.679,0,0,0-.267-2.1l-2.67-2.67a1.678,1.678,0,0,0-2.1-.267l-2.708,1.639a17.051,17.051,0,0,0-4.234-1.716l-.763-3.126a1.63,1.63,0,0,0-1.64-1.209h-3.813a1.63,1.63,0,0,0-1.64,1.209l-.763,3.126a17.026,17.026,0,0,0-4.233,1.716l-2.709-1.639a1.678,1.678,0,0,0-2.1.267l-2.67,2.67a1.679,1.679,0,0,0-.267,2.1l1.639,2.708A17.051,17.051,0,0,0,207,317.092l-3.126.763a1.63,1.63,0,0,0-1.209,1.64v3.813a1.629,1.629,0,0,0,1.209,1.64l3.126.763a17.025,17.025,0,0,0,1.716,4.233l-1.639,2.709a1.68,1.68,0,0,0,.267,2.1l2.67,2.67a1.68,1.68,0,0,0,2.1.267l2.709-1.64a16.982,16.982,0,0,0,4.233,1.716l.763,3.128a1.673,1.673,0,0,0,1.64,1.258h3.813a1.674,1.674,0,0,0,1.64-1.258l.763-3.128a17.007,17.007,0,0,0,4.234-1.716l2.708,1.64a1.68,1.68,0,0,0,2.1-.267l2.67-2.67a1.68,1.68,0,0,0,.267-2.1l-1.639-2.709a17.024,17.024,0,0,0,1.716-4.233l3.126-.763a1.675,1.675,0,0,0,1.259-1.64V319.5A1.674,1.674,0,0,0,242.854,317.855Zm-19.488,13.081A9.535,9.535,0,1,1,232.9,321.4,9.538,9.538,0,0,1,223.367,330.936Z" transform="translate(1.849 1.849)"/><path class="b" d="M242.5,319.5v3.813a1.675,1.675,0,0,1-1.259,1.64l-3.128.763a16.98,16.98,0,0,1-1.715,4.233l1.639,2.709a1.68,1.68,0,0,1-.267,2.1l-2.67,2.67a1.68,1.68,0,0,1-2.1.267l-2.708-1.64a17.007,17.007,0,0,1-4.234,1.716l-.763,3.128a1.673,1.673,0,0,1-1.64,1.258h-1.906V330.936a9.535,9.535,0,1,0,0-19.069V300.7h1.906a1.629,1.629,0,0,1,1.64,1.209l.763,3.126a17.051,17.051,0,0,1,4.234,1.716l2.708-1.64a1.68,1.68,0,0,1,2.1.268l2.67,2.67a1.679,1.679,0,0,1,.267,2.1l-1.639,2.708a17.033,17.033,0,0,1,1.716,4.234l3.126.763A1.674,1.674,0,0,1,242.5,319.5Z" transform="translate(3.468 1.849)"/></g></svg>