<svg xmlns="http://www.w3.org/2000/svg" width="70.382" height="56.729" viewBox="0 0 70.382 56.729"><defs><style>.a{fill:#261f64;}.b{fill:#2a4795;}.c{fill:#17173a;}.d{fill:#e2e2e2;}.e{fill:#fff;}</style></defs><g transform="translate(-95.462 -286.511)"><g transform="translate(124.281 286.511)"><path class="a" d="M120.813,302.641h12.744v20.676H120.813Z" transform="translate(-120.813 -284.304)"/><path class="a" d="M131.69,295.692v-2.86a6.32,6.32,0,0,1,12.163-2.41l1.021,2.475Z" transform="translate(-119.325 -286.511)"/><path class="a" d="M160.188,321h-.009l-4.7.861-7.914,1.455-8.034,1.472a11.274,11.274,0,0,1,6.322-8.609l-.183-.8c-.127-.009-.265-.009-.4-.009A11.272,11.272,0,0,0,134.029,325.8l-4.712.859V302.311A11.133,11.133,0,0,1,139.876,291.2c.192-.009.375-.018.567-.018a10.96,10.96,0,0,1,4.739,1.071,10.6,10.6,0,0,1,1.446.814,11.043,11.043,0,0,1,4.089,5l8.766,21.237.475,1.153Z" transform="translate(-119.65 -285.872)"/></g><path class="b" d="M158.917,321h-.009l-4.7.861-7.914,1.455-1.712-7.137-.183-.8-1.115-4.656L139.1,293.28,138.6,291.2c.192-.009.375-.018.567-.018a10.96,10.96,0,0,1,4.739,1.071,10.6,10.6,0,0,1,1.446.814,11.043,11.043,0,0,1,4.089,5l8.766,21.237.475,1.153Z" transform="translate(5.902 0.639)"/><path class="c" d="M160.179,318.654c-.065-.192-.147-.375-.221-.549a13.533,13.533,0,0,0-.658-1.372,15.932,15.932,0,0,0-14.036-8.371c-.238,0-.475.009-.713.018a15.935,15.935,0,0,0-15.134,14.154,16.316,16.316,0,0,0-.1,1.775,15.948,15.948,0,0,0,30.715,6.011.009.009,0,0,0,.009-.009,15.978,15.978,0,0,0,.138-11.657Zm-14.915,16.927a11.278,11.278,0,0,1-11.273-11.273c0-.292.01-.576.038-.859a11.272,11.272,0,0,1,11.235-10.422c.138,0,.275,0,.4.009l.183.8a11.274,11.274,0,0,0-6.322,8.609,10.961,10.961,0,0,0-.11,1.565,11.278,11.278,0,0,0,9.168,11.08A11.428,11.428,0,0,1,145.264,335.581Z" transform="translate(4.631 2.989)"/><path class="d" d="M148.023,334.526a11.428,11.428,0,0,1-3.322.493,11.278,11.278,0,0,1-11.273-11.273c0-.292.01-.576.038-.859A11.272,11.272,0,0,1,144.7,312.465c.138,0,.275,0,.4.009l.183.8a11.274,11.274,0,0,0-6.322,8.609,10.961,10.961,0,0,0-.11,1.565A11.278,11.278,0,0,0,148.023,334.526Z" transform="translate(5.194 3.551)"/><path class="e" d="M155.33,323.746a11.284,11.284,0,0,1-7.96,10.779,11.278,11.278,0,0,1-9.168-11.08,10.961,10.961,0,0,1,.11-1.565,11.274,11.274,0,0,1,6.322-8.609l-.183-.8a10.59,10.59,0,0,1,1.712.193,11.279,11.279,0,0,1,9.167,11.079Z" transform="translate(5.847 3.552)"/><path class="a" d="M109.55,292.9l1.021-2.475a6.319,6.319,0,0,1,12.162,2.41v2.86Z" transform="translate(1.927)"/><path class="b" d="M127.23,302.309v24.345l-18.242-3.339-12.62-2.31,9.462-22.936a11.115,11.115,0,0,1,10.28-6.881c.19,0,.377,0,.564.015A11.121,11.121,0,0,1,127.23,302.309Z" transform="translate(0.124 0.64)"/><path class="a" d="M116.674,291.2l-7.686,32.112-12.62-2.31,9.462-22.936a11.115,11.115,0,0,1,10.28-6.881C116.3,291.188,116.487,291.193,116.674,291.2Z" transform="translate(0.124 0.64)"/><path class="c" d="M127.355,324.305a15.947,15.947,0,1,1-15.947-15.947A15.947,15.947,0,0,1,127.355,324.305Z" transform="translate(0 2.989)"/><path class="e" d="M122.122,323.743a11.276,11.276,0,1,1-11.276-11.277A11.275,11.275,0,0,1,122.122,323.743Z" transform="translate(0.562 3.551)"/><path class="d" d="M114.164,334.526a11.428,11.428,0,0,1-3.322.493A11.278,11.278,0,0,1,99.57,323.747c0-.292.009-.576.036-.859a11.274,11.274,0,0,1,11.236-10.422c.138,0,.275,0,.4.009l.183.8a11.269,11.269,0,0,0-6.322,8.609,10.959,10.959,0,0,0-.11,1.565A11.278,11.278,0,0,0,114.164,334.526Z" transform="translate(0.562 3.551)"/></g></svg>