<svg xmlns="http://www.w3.org/2000/svg" xmlns:xlink="http://www.w3.org/1999/xlink" viewBox="0 0 20.21 26.59"><defs><style>.cls-1,.cls-12{fill:#fff;}.cls-14,.cls-2{fill:none;}.cls-2{stroke:#bababa;stroke-miterlimit:10;stroke-width:2.51px;}.cls-3{fill:url(#Degradado_sin_nombre);}.cls-4{fill:url(#Degradado_sin_nombre_2);}.cls-5{fill:#f3f2f2;}.cls-6{fill:url(#Degradado_sin_nombre_6);}.cls-7{fill:url(#Degradado_sin_nombre_6-2);}.cls-8{fill:url(#Degradado_sin_nombre_6-3);}.cls-9{fill:url(#Degradado_sin_nombre_6-4);}.cls-10{fill:#a4a3a1;}.cls-11,.cls-12{fill-rule:evenodd;}.cls-13{fill:#060606;}.cls-14{stroke:#060606;stroke-miterlimit:22.93;stroke-width:1px;}</style><linearGradient id="Degradado_sin_nombre" x1="-802.28" y1="530.42" x2="-802.28" y2="529.74" gradientTransform="matrix(8.3, 0, 0, -22.26, 6665.57, 11810.33)" gradientUnits="userSpaceOnUse"><stop offset="0" stop-color="#052e5f"/><stop offset="1" stop-color="#00529e"/></linearGradient><linearGradient id="Degradado_sin_nombre_2" x1="-802.28" y1="530.63" x2="-802.28" y2="530.16" gradientTransform="matrix(8.3, 0, 0, -22.26, 6673.84, 11810.32)" gradientUnits="userSpaceOnUse"><stop offset="0" stop-color="#920710"/><stop offset="1" stop-color="#d7000f"/></linearGradient><linearGradient id="Degradado_sin_nombre_6" x1="-498.48" y1="409.09" x2="-498.48" y2="409.63" gradientTransform="matrix(2.21, 0, 0, -3.65, 1110.85, 1509.16)" gradientUnits="userSpaceOnUse"><stop offset="0" stop-color="#474545"/><stop offset="1" stop-color="#2e2e2d"/></linearGradient><linearGradient id="Degradado_sin_nombre_6-2" x1="-491.82" y1="416.16" x2="-491.82" y2="415.5" gradientTransform="matrix(2.17, 0, 0, -3.81, 1076.7, 1592.54)" xlink:href="#Degradado_sin_nombre_6"/><linearGradient id="Degradado_sin_nombre_6-3" x1="-462.76" y1="190.59" x2="-461.76" y2="190.59" gradientTransform="matrix(2.03, 0, 0, -1.45, 950.77, 286.62)" xlink:href="#Degradado_sin_nombre_6"/><linearGradient id="Degradado_sin_nombre_6-4" x1="-487.7" y1="210.5" x2="-486.7" y2="210.5" gradientTransform="matrix(2.15, 0, 0, -1.53, 1053.38, 334.62)" xlink:href="#Degradado_sin_nombre_6"/></defs><g id="Capa_2" data-name="Capa 2"><g id="Capa_1-2" data-name="Capa 1"><path class="cls-1" d="M18.6,3.73a20.78,20.78,0,0,1-8.48-2.32A20.69,20.69,0,0,1,1.65,3.73C-.68,18.94,10.12,25,10.12,25S20.92,18.94,18.6,3.73Z"/><path class="cls-2" d="M18.63,3.75a20.93,20.93,0,0,1-8.52-2.33A21,21,0,0,1,1.59,3.75C-.75,19,10.11,25.15,10.11,25.15S21,19,18.63,3.75Z"/><path class="cls-3" d="M2.11,4.28c-2.19,14.34,8,20.06,8,20.06V2.08A19.64,19.64,0,0,1,2.11,4.28Z"/><path class="cls-4" d="M18.1,4.28a19.56,19.56,0,0,1-8-2.2V24.34S20.29,18.62,18.1,4.28Z"/><path class="cls-5" d="M7.26,12.76a9.56,9.56,0,0,1,1.07-.35.69.69,0,0,0,0-.1l0-.17a9.49,9.49,0,0,0-1,.33c-.37.14-.74.3-1.13.48l0,0v0a1.56,1.56,0,0,1,.9-1.57A1.44,1.44,0,0,1,6,9.91v0l0,0c.36.16.71.3,1,.43s.64.22.95.3v-.3c-.32-.09-.64-.2-.95-.31s-.63-.25-.93-.39L5.8,9.47l-.07.39a1.16,1.16,0,0,0,0,.49.29.29,0,0,0,0,.09l0,.09h0a1.63,1.63,0,0,0,.39.64l.1.1.11.09h0l0,0,0,0a1.87,1.87,0,0,0-.48.6l-.06.14a1.21,1.21,0,0,0-.05.14h0a1.81,1.81,0,0,0-.07.52v.1s0,.06,0,.09h0l.08.39.36-.17c.35-.17.7-.32,1.06-.46M13.08,10c-.31.12-.62.23-.93.32v.3c.3-.09.62-.19.94-.31l1-.44,0,0v0a1.61,1.61,0,0,1-.9,1.52,1.62,1.62,0,0,1,1,1.48v0h0c-.41-.18-.8-.34-1.18-.47s-.71-.23-1.07-.32c0,.05,0,.11,0,.16l-.05.11h0a10.72,10.72,0,0,1,1.14.34c.37.13.73.28,1.09.44l.4.17,0-.43a1.67,1.67,0,0,0-.05-.5l0-.1,0-.08h0A1.73,1.73,0,0,0,14,11.6l-.1-.1-.1-.09h0l0,0,0,0a1.64,1.64,0,0,0,.45-.56l.06-.13a.69.69,0,0,1,0-.13h0a2.28,2.28,0,0,0,.09-.51v-.1a.28.28,0,0,0,0-.09h0l0-.43L14,9.6c-.3.14-.61.28-.93.4m-1.26,5.32a14,14,0,0,1-.54-2,2.17,2.17,0,0,1-.24.29,15.6,15.6,0,0,0,.52,1.77c.22.61.48,1.25.8,1.93v0h0A2.36,2.36,0,0,1,10.1,16a2.36,2.36,0,0,1-2.19,1.42h0l0,0c.29-.68.54-1.32.75-1.94a15,15,0,0,0,.5-1.77,2.91,2.91,0,0,1-.24-.27,14.25,14.25,0,0,1-.53,1.94c-.22.65-.48,1.3-.75,1.92l-.17.4.44,0a2.1,2.1,0,0,0,.7-.08l.13,0,.12,0h0a2.52,2.52,0,0,0,1-.62l.15-.17.13-.17h0l0,0,0,0a2.55,2.55,0,0,0,.86.74l.2.1.22.09h0a2.7,2.7,0,0,0,.7.12h.26l.43-.05-.19-.39c-.28-.63-.55-1.27-.79-1.92M8.34,7.41a14,14,0,0,1,.55,1.92l.28-.08a13,13,0,0,0-.52-1.82,18.39,18.39,0,0,0-.84-2v0h0a2.27,2.27,0,0,1,2.31,1.34,2.16,2.16,0,0,1,2.16-1.4h0v0a19.75,19.75,0,0,0-.8,2A13.18,13.18,0,0,0,11,9.24l.28.06a14.52,14.52,0,0,1,.53-1.93c.22-.64.48-1.27.76-1.88l.16-.36-.4-.06a1.57,1.57,0,0,0-.68,0l-.12,0-.12,0h0a2.44,2.44,0,0,0-1,.65L10.29,6l-.14.19h0l0,0,0,0a2.69,2.69,0,0,0-.91-.8L9,5.27l-.23-.08h0A2.44,2.44,0,0,0,8,5.09H7.9l-.13,0-.38.08.16.36c.29.61.56,1.23.79,1.86"/><path d="M10.06,14.5h0l0,0H9.89l0,0H9.8l0,0h0l0,0H9.67v0h0l0,0H9.54l0,0h0l0,0h0L9.37,14a15.14,15.14,0,0,1-.49,1.75c-.21.61-.45,1.24-.74,1.9a2.3,2.3,0,0,0,2.12-1.43V14.78Z"/><path class="cls-6" d="M10.1,15.94l0,0a2.3,2.3,0,0,0,2.18,1.37c-.3-.67-.56-1.3-.78-1.9A13.46,13.46,0,0,1,11,13.7q-.15.17-.33.33h0l0,0h-.12l-.21.17h0l-.05,0h0l0,0h0v1.48Z"/><path class="cls-7" d="M7.87,5.44c.3.65.58,1.31.82,2a13.12,13.12,0,0,1,.52,1.83l.18-.06h0l0,0h0l.07,0h0l.08,0H9.8l0,0h0L10,9h0V6.78A2.23,2.23,0,0,0,7.87,5.44Z"/><path d="M10.09,8.89h.06l.06,0h0l0,0h.07l0,0h.13l.1,0h0l.25.07a14.71,14.71,0,0,1,.5-1.84c.22-.64.48-1.3.79-2a2.14,2.14,0,0,0-2.1,1.41l0,0,0,0A.35.35,0,0,0,10,6.62V8.79h0Z"/><path class="cls-8" d="M14.12,9.92c-.35.17-.68.3-1,.43a9.82,9.82,0,0,1-1,.32,5.36,5.36,0,0,1-.05.7h1.12A1.53,1.53,0,0,0,14.12,9.92Z"/><path d="M8,10.68c-.31-.08-.63-.19-1-.31s-.67-.26-1-.42a1.43,1.43,0,0,0,1,1.4l0,0H8.09A5.09,5.09,0,0,1,8,10.68Z"/><path d="M13,12.39c.37.13.75.28,1.15.46a1.55,1.55,0,0,0-1-1.42l0,0,0,0H12.09a5.42,5.42,0,0,1-.14.7A10.58,10.58,0,0,1,13,12.39Z"/><path class="cls-9" d="M7,11.4a1.52,1.52,0,0,0-.92,1.5c.39-.18.76-.34,1.11-.47a9.65,9.65,0,0,1,1-.33,4.48,4.48,0,0,1-.14-.73H7Z"/><path class="cls-5" d="M12,9.59a4.55,4.55,0,0,1-1.88-.51,4.63,4.63,0,0,1-1.89.51,4.52,4.52,0,0,0,1.89,4.73A4.53,4.53,0,0,0,12,9.59Z"/><path class="cls-10" d="M8.33,9.71a4.22,4.22,0,0,0,1.77,4.43V9.22A4.38,4.38,0,0,1,8.33,9.71Z"/><path class="cls-1" d="M11.86,9.71a4.29,4.29,0,0,1-1.76-.49v4.92A4.23,4.23,0,0,0,11.86,9.71Z"/><path class="cls-11" d="M11.56,11.13v-.05a.13.13,0,0,0,.08-.11h0a0,0,0,0,0,0,0h0v0l0,0v0h0s0,0,0,0,0,0-.06,0v-.09a.13.13,0,0,1,.14.06.31.31,0,0,1,0,.19.28.28,0,0,0,0-.13.22.22,0,0,0-.17-.2v0a.23.23,0,0,1,.18.21.27.27,0,0,1-.08.22l-.1.06m0-.67v-.18a.25.25,0,0,1,0,.08.31.31,0,0,1,0,.1m0-.18v.18a.27.27,0,0,1-.1.15v0a.24.24,0,0,0,0-.14s0,0,0-.05v-.14a.21.21,0,0,1,.08.17v0a.36.36,0,0,1,0,.1h0a.14.14,0,0,0,0-.06s0-.05,0-.08v0l0-.08,0,0-.06-.05v0h0s0,0,0,.05l.05.06m0,.36v0h0a.09.09,0,0,0-.08,0v0l0,0h.08m0,.11v.08h0v.05h-.1v-.05l0,0h0c0-.06,0-.09,0-.1m0,.34v0l-.08,0h0v0l.1,0m-.08,1.2v0m0-.71v0a.13.13,0,0,0,0-.08v0a.11.11,0,0,0,0-.08v0a.21.21,0,0,1,0,.1v0a.2.2,0,0,1,0,.13m0-.56v0h0v0h.06s0,0-.06.06m0-.85v0l0,0v0l0,0m0,.06v.15h0a.14.14,0,0,1,0,.07h0v-.13a0,0,0,0,0,0-.05h0v0h0m0,.33v0l0,0v0l0,0m0,.11v0a.12.12,0,0,0,0,.14v.06l0,0v0l0,0,0,0V10.7l0,0m0,.3v0h0Zm0,0v0h0v0h0m0,.13v0h0v0h0m0,.2v0a.05.05,0,0,0,0,0v0l0,0m0,.2v0l0,0v0l0,0m0,.72v0a0,0,0,0,1,0,0v-.06l0,0s0,0,0,0l0,0h0a0,0,0,0,1,0,0m-.06-2.1v0h0v0h0m0,.07v0l0,0v-.06h0m0,.09v.08h0v-.06h0m0,.13h0v0m0,.15v0h0v0l0,0m0,.11v.14a.08.08,0,0,1,0-.05v0a.08.08,0,0,1,0,0m0,.18v0l0,0v0a0,0,0,0,0,0,0m0,.1v0h0Zm0,0v0h0v0h0m0,.13v0h0v0h0m0,.17v0l0,0v0s0,0,0,0m0,.27v0l0,0v0l0,0m0,.65h0v0h0v.06h0v0h0v-.07h0m0-.67v-.11a.05.05,0,0,1,0,0,.19.19,0,0,1,0,.07m0-1.06h0s0,0,0,0m0-.35v0h0m0,.07v.06h0v0h0v.06s0,0-.07.06h0v0a.08.08,0,0,0,0,0h0v0h0s0,0,0-.06,0-.08.06-.08m0,.27h0a.2.2,0,0,1-.08.08v0l.08,0m0,.13v0l-.08,0v0l0,0,0,0m0,.3h-.09v0l.09,0m0,.08h0m0,0v0h-.09v0l.09,0m0,.13v0h-.09v0h.09m0,.15h0l-.05,0v0h.09m0,.16v.12l0,0-.06,0v0s.05,0,.05-.05,0,0,0,0h0a0,0,0,0,0,0,0s0,0,0,0h0v-.06h.09m0,.15a.12.12,0,0,1-.09,0v0a.32.32,0,0,0,.09,0Zm0,.63v.07l-.06,0h0v0h0s0,0,0,0,0,0,0,0h0l0,0v0l0,0h0s0,0,0,0M11.29,12v0h0v0s0,0,0,0h0m0-.8v0l0,0,0,0m0-.43v0a.1.1,0,0,0,.05-.06l-.05,0v0l.06,0s0,0,0,0,0,.06-.08.09m0-.66h0a.1.1,0,0,0,0,.14h0l0,0v0l0,0a.12.12,0,0,1,0-.17l0,0m0,.28v0l0,0-.06,0h0v0h0l.1-.05m0,.09v0l0,0-.09,0v0l.12-.05m0,.11v0l-.12,0v0h.12Zm0,.08v0h0l-.09,0h0l.11,0m0,0a.24.24,0,0,1-.12,0v0l.09,0,0,0Zm0,.14v0h-.12v0h.12Zm0,.08h-.11v0l.09,0h0m0,0h-.12v0h.12Zm0,.11v0h-.12v-.05l.08,0h0m0,.08v0l-.12,0v0h.09l0,0h0m0,.08v0s0,0,0,0,0,.09,0,.09h0v.05l0,0s0,0,0-.05l0,0v0l0,0h0v0a.11.11,0,0,1,.06-.1m0,.24h0s0,0,0,0h0m0,.05v0h0v0h-.12v0h0l.1,0m0,.42h0a0,0,0,0,0,0,0h0s0,0,0,0v0s0,0,0,.05,0,0,0,.05,0,0,0,.06h0v0h0l0-.05,0,0s0,0,0,0,0,0,0,.05l0,0h0s0-.06,0-.07,0,0,0,0a.05.05,0,0,1,0,0h0m0,.2,0,0-.06,0h0v0l.06,0,.06,0Zm0,.08v0h0s0,0-.06,0h0v0h0l.06,0h0m-.13-.75h0m0-1h0l-.15,0h0v0a.38.38,0,0,0,.15,0m0,.09v0l-.08,0h0s0,0,.09,0v0h-.08s0,0,0,0h0s0,0,0,0h.06v0h0l0,0,0,0s0,0,0,0,.06.07.13.06v0s-.1,0-.1,0l0,0h.08v0h0s-.07,0-.09,0v0s0,0,0,0h0c0,.05,0,.06.08.07h0v0h0l-.1,0s0,0,0,0h.08v0h0s-.12,0-.07,0l.11,0v0l0,0-.1,0h0s.09.08.12.09h0c-.07,0-.14-.05-.15-.09V11h0v0s0,0,0,0v-.05a0,0,0,0,0,0,0l0,0v-.05l0,0,0,0h0v0l0,0s0,0,0,0v0s0,0,0,0h.13m0,.65-.12,0,0,0v.06l.05,0a.19.19,0,0,0,.1,0h0Zm0,.15v0l-.07,0L11,11.32v0l.16.1m0,.12-.07,0-.08-.07h0l.09.09L11,11.42v0l.06.06a.19.19,0,0,0,.09,0h0Zm0,.09v0l-.07,0L11,11.55v0l0,0a.23.23,0,0,0,.12.06m0,.53v0h0s0,.08-.07.1,0,0,0,0a.08.08,0,0,0,0,0v0a.07.07,0,0,0,0,0s0,0,0,0v0h-.06c-.05,0-.07,0-.09-.05v0l0,0a.18.18,0,0,0,.05-.07c0-.06,0,0,0-.07h0m0,.19v0h-.1l-.06.05v0a.09.09,0,0,1,.09,0h.07m-.15.3v0a0,0,0,0,0,0,0h0v0h0l0,0s0,.08,0,.08m0-2.27v-.07h0a.06.06,0,0,1,0,.06m0-.07v.07a.07.07,0,0,1,0,.05v0l0,0v0h0v0s0,0,0,.07a.1.1,0,0,0,0-.14v0a.14.14,0,0,1,.07.08m0,.26v0h0v0h0s0,0,0,.05h0s0,0,0,0,0,0,0,.06l0,0h0s0,0,0,0v-.17l0,0h0s0,0,0,0,0,0,0,0v0h0a.08.08,0,0,1,0,.05v0a.07.07,0,0,0,0-.05h0s0,.05,0,.08v0Zm0,.16,0,0h0Zm0,.07h0l0,0,0,0Zm0,.1v.06l0,0h0v0s0,0,.07,0m0,.1v.14s0,0,0,.07v.05l0,0h0a.16.16,0,0,0,.06.08v0h0L11,11.22v-.14h0s0,0,0-.06,0,0,0,0h0s0,0,.06,0m0,.43a.36.36,0,0,1-.07-.1v0l.05.06a0,0,0,0,0,0,0Zm0,0v0h0l0,0a.05.05,0,0,0,0,0v0l0,.05,0,0m0,.09L11,11.42h0v.05l.05,0,0,0Zm0,.72v0h0l0,0v0l0,0h0m0,.12v.05l0,0s0,0,0,.05,0,0,0,0v0h0s0,0,0,0l0,0v0h0a0,0,0,0,1,0,0v-.07h0s0,0,0,0a.22.22,0,0,1,0-.06.16.16,0,0,1,0-.09Zm-.07.05.06-.1h0l0,0v0a.08.08,0,0,1,0,0h0v.05Zm0-.31V12s0,0,0,0h0m0-.41v0m0-.08v0l0,0s0,0,0-.05h0l.07.07H11m0-.54h0l0,0ZM11,11v0h0m0-.09v0h0m0-.66v0h0v0h0v0l0,0Zm0,.08v0s0,0,0,0H11m0,0v0h0v0h0m0,.16v0a.1.1,0,0,1,0,0h0l0,0m0,.12v.21h0s0,0,0,0H11v0a0,0,0,0,0,0,0,.11.11,0,0,0,0,0h0v0s0,0,0,0,0,0,0,0v0l-.06,0v-.24l0,0,0,0h0v0s0,0,0,0l0,0V10.6H11m0,.29s0,0,0,0h0Zm0,.21v.14h0a.14.14,0,0,0,0,.06v0l-.05-.07s0,.05.05.09v0h0l-.05-.06v-.11h0v0h0c.05,0,0,0,0,0s0,0,.05,0m0,.33v.05l-.05-.06h0v-.05l.06.06m0,.1-.05-.06h0v0l0,0,0,0Zm0,0v0l-.06,0v0l.06.05m0,.08-.06-.05v0l0,0h0v0h0l0,0ZM11,12v.06l-.06,0v-.07h0s0,0,0,0h0v0l0,0,0,0m0,.16v0h0l0,0v0l.06,0m0,.06v0l-.06,0v0h0l.06,0m0,.11v0l0,0s0,0,0,0,0,0,0,0,0,0,0,0v.07l0,0s0,0,0,0h0v-.12l.06-.05m-.08-2.2v0l0,0h0a.09.09,0,0,0,0-.05v0h0s0,.05,0,.07m0,0v0h0v0h0m0,.07v0h0v0h0Zm0,.05v0l0,0v0h0m0,.2h0l0,0v0h0m0,.08v.05h0v0h0m0,.11v0h0l0,0m0,.06V11h0s0,0,0,0,0,0,0,0h0V11h0s0,0,0,0a.05.05,0,0,0,0,0v0s0,0,0,0l0,0v-.06h0m0,.35v0l0,0s0,0,0,0m0,.06v.11h0s0,0,0,0a.11.11,0,0,0,0,.07v.05l0-.05V11.2h0m0,.28v0l0-.05v0l0,.05m0,0,0,0h0v.06l0,0Zm0,.08v0l0,0v0l0,0m0,.08v0h0v0h0m0,.31v0l0,0h0v-.16h0s0,.1,0,.12h0l0,0m0,.08v.06h0l0,0v0l0,0v-.07h0m0,.17v0h0v0h0m0,.19v.12l0,0s0-.06,0-.1Zm-.05-1.25h0Zm0-1.08v0a.12.12,0,0,0-.07,0v0Zm0,.13s0,0,0,0,0,0,0,0,0,0,0,0h0s0,0-.05,0v.05h0v0h0v0h.07Zm0,.07v0l-.06,0h0v0h0l.05,0m0,.05v.05a.09.09,0,0,1-.07,0v0h0a.09.09,0,0,0,.07,0m0,.21v0h-.07l.07,0m0,.07v0l-.05,0s0,0,0,0,0,0-.05,0v-.1h.07Zm0,.18v.06l-.07,0h0a.07.07,0,0,1,.07,0m0,.12v0h0m0,.07v.12s0,0,0,0v0s0-.06-.07-.06h0v0s.05,0,.05,0,0,0,0,0,0,0,0,0l0,0v0h0s0,.05.06.05m0,.22v.17l0-.07s0,.07,0,.11v0l0,0,0,0h0v-.08l0,0s0,0,0,0v0h0l.05,0Zm0,.27-.06-.1v.14s0,0,0,0v.07h0v.21l0,0,0,.09s0,0,0,0l0,0v0l.06,0v-.16s0,0,0,0l0,0s0,0,0,0h0v0s-.06,0-.06-.06h0a0,0,0,0,1,0,0h0l0,0v-.05h0Zm0,.59v.07h0s0,0,0,0l0,0v0h0s0,0,0,0h0V12.2h0v0a.06.06,0,0,0,0-.06v-.07h.07m-.06.93v0a.25.25,0,0,0,0-.24v-.05a.32.32,0,0,1,0,.33m0-1.82h0s0,0,.05,0l-.06,0Zm0-.29h0v0h0m0-.1v0h0l0,0m0-.74h0m0,.07v.05s0,0,0,0h0v0h.05m0,.06v0h0v0m0,0v0l-.05,0h0s0,0,0,0m0,.09v0h-.05v0h.05Zm0,.08v0h-.05v0h.05m0,.18v0h0m0,.06v.1s0,0,0,0h.05v0s-.06,0-.06.06,0,0,.06,0h-.06v-.23l.06,0m0,.21Zm0,.1v0l-.05,0s0,0,0,0v0h0s0,0,0,0m0,.13v0s0,0,0,0v0s0,0,0,0,0,.08,0,0,0,0,0,0h0v0h0s0-.07,0-.1V11h0l.05,0m0,.12s0,0,0,0h0Zm0,.08h0l-.05,0v0h0v.07l0,.05a.13.13,0,0,1,0,.06v-.1a.14.14,0,0,1,0-.06s0,0,0,0a.1.1,0,0,1,0,0Zm0,.27v.21l0,0s0,0,0,0h0v-.06h0a.17.17,0,0,0,0-.12v-.2s0,.12.06.15m0,.35v.05h0s0,0,0,.06a.05.05,0,0,0,0,0v.07h0s0,0,0,0V12h0a.22.22,0,0,1,0-.08s0,0,0-.06v-.1a.15.15,0,0,0,.05.06m0,.32v.06h-.05v-.08h0l0,0m0,.46v0a.21.21,0,0,0-.06-.1v0a.21.21,0,0,1,.06.08m0,.29v0h0l-.05,0v0l0,0,0,0m-.06,0a.24.24,0,0,0,0-.24.16.16,0,0,0,0-.07v.08h0a.21.21,0,0,1,0,.19Zm0-1.94v0s0,0,.05,0h-.05m0-.78,0,0h0s0,0,0-.05h0a0,0,0,0,1,0,0h0Zm0-.18h0l-.07,0h0v0a.17.17,0,0,1,.1,0m0,.06v0a0,0,0,0,0,0,0l0,0h0v0l0,0h0s0,0,0,0h0v0l.09-.08m0,0Zm0,.1h0a.06.06,0,0,0-.06.06l0,0s0,0,0,.05a.1.1,0,0,0,.06.05v0l0,0a.16.16,0,0,0,0,.09h0v-.12s0,0,0-.08a.13.13,0,0,1,.06-.09h0m0,0s0,0,0,0h0Zm0,.28v0l-.08,0h0v0l.1,0m0,.07v.25h0v0h0v0h0s0,0,0,0,0,0,0,.06h0s0,0,0,0,0,0,0,0a.43.43,0,0,1,0,.05v0s0,0,0-.05V11a.22.22,0,0,0,.05-.08h0l0-.07a.28.28,0,0,1,0-.09.13.13,0,0,1,.05-.13l0,0m0,.39v0h0Zm0,.12s0,0,0,0v0s-.05,0-.07,0v.08h0s0,0,0,0v0s0,0,0,0,0,0,0,0Zm0,.09v0h0m0,0v.07h0s0,0,0,0v.11s0-.1-.05-.1v-.11s0,0,0,0,0,0,0,0m0,.1h0s0,0,0,.08v.08h0l0,0,0,0v.62a.2.2,0,0,1,0,.11v0a.19.19,0,0,1,0,.07l0,0v.06l0,0a.21.21,0,0,1,0-.06h0v0l0,0v-.08a.09.09,0,0,1,0,0s0,0,0,0h0v-.06a.13.13,0,0,1-.06-.07.35.35,0,0,1,0-.14v0s0-.09,0-.09,0,0,0,0a.88.88,0,0,0,0,.16v-.09a.13.13,0,0,1,0-.06h0V11.7a.18.18,0,0,1-.08-.13h0l.07,0h0Zm0,1.2v0h0a.27.27,0,0,0-.08-.07h0v0l.07.05,0,0m0,.05-.06-.06,0,0v.06h0a.2.2,0,0,1,.09.11Zm0,.28v0h0a.11.11,0,0,1-.08,0h0a.13.13,0,0,0,.1-.06m0,.09v0l-.09.05V13l.09,0m-.12-2a.06.06,0,0,0,0,0,.15.15,0,0,0,0-.07Zm0-.92h0l0,0v0h0m0,.11v0l0,0v0s0,0,0,0m0,.26v.09h0v0h0s0,0,0-.05m0,.17v0l0,0v0h0Zm0,.27V11s0,0,0,0v0a.08.08,0,0,0,0,0,.14.14,0,0,0,0-.07v-.08a.09.09,0,0,1,0,.06m0,.16v.08h0l0,0v.11s0,0,0,0h0v-.17h0m0,.26v.07h0v-.07h0m0,.15v.62h0v-.35a.2.2,0,0,0,0-.11l0,0V11.5s0-.05,0-.05h0m0,.82v.06l0,0v-.11h0l0,.08m0,.23v0h0v0h0m0,.05v.06l0,0v-.06l0,0m0,.42v0h0v0h0m0,.07v0h0V13h0m0-.13v-.12s0,0,0,.05v0a.08.08,0,0,1,0,0m0-2.83v0l0,0h0v0h0m0,.13v0h0l0,0h0m0,.27v0h0a.14.14,0,0,0,0,.06v0h0v-.17h0v-.09h0v.08s0,0,0,.05m0,.14v0a.1.1,0,0,0,0,0v0l0,0m0,.19v.09l0-.08v-.1a.21.21,0,0,0,0,.1m0,.19v0h0s0,0,0,0v.18a.08.08,0,0,0,0,0,.05.05,0,0,0,0,0v.07s0,.1,0,.15,0,0,0-.05v.08h0s0,.05,0,.08a.25.25,0,0,0,0,.08h0v.58s0,0,0-.05h0a.09.09,0,0,1,0,.05V12s0-.07,0-.08V11h0m0,1.47v0l0,0v0h0Zm0,0,0,0h0v.06h0Zm0,.26v.12l0,0h0v0s0,0,0,0a.11.11,0,0,0,0-.08v0l0,0m0,.19h0v0h0m0,.07v0h0v0h0m0,.23v0m0-3.18v.05h0V10.1h0m0,.27v.09l0,0v-.05h0m0,.1v.17h0V10.5l0,0m0,.22v.16s0,0,0-.07v0s0,0,0-.05m0,.36v.88h0v-.3c0-.12,0-.27,0-.39v-.14h0V11Zm0,1v.31l0,0v-.05a.19.19,0,0,0,0-.08v0s0-.06,0-.06V12m0,.48v0h0v0l0,0m0,0v.06h0v-.07h0m0,.25h0v0l0,0m0,.14V13h0v-.06h0m0,.08h0m0,.06v0h0V13h0m0,.18v.06a.14.14,0,0,1,0,.06v-.18a.14.14,0,0,1,0,.06m0-2.86v-.13s0,0,0,.06,0,0,0,.06Zm0-.26v.05a.16.16,0,0,1-.08-.06v0a.11.11,0,0,0,.07,0Zm0,.16v.1s0,0,0,0a.25.25,0,0,1,0-.07m0,.11v.06h0s0,0,0,.06h0s0,.08.05.08,0,0,0-.06h0v.13h0s0,.06,0,.08h0v-.3l.07,0m0,.36v0h0m0,.3v.05s0,0-.05-.05h0v0l.07,0m0,.6v.3l-.05.05a.05.05,0,0,1,0,0v0a.22.22,0,0,0,.05-.08v0s0,.05-.05.07v-.08l0,0,0-.1s0-.07,0-.1m0,.41v.09h0s0,.06,0,.09a.24.24,0,0,0,0,.08h0v.06h0s0-.13-.06-.19v-.07a.12.12,0,0,0,.07-.05m0,.42s0,0,0-.08v0s0,0,0,0h0v0l0,0s0,0,0,0v0s.05,0,.05,0,0,0,0,0h0v.05s.05,0,.05,0,0,0,0,0h0v.09h0v0h.06v-.07h0Zm0,.3h-.08v0h.07m0,.16v0h0v0a.19.19,0,0,1-.07-.06v-.09c0,.06,0,.06.07.06m0,.13v.06l-.06,0h0V13a.11.11,0,0,0,.07,0m0,.12v.06a.1.1,0,0,0-.07-.09v0a.13.13,0,0,1,.07.06m0,.08v.1l-.07.09v-.07a.19.19,0,0,0,.07-.13m-.09-1.56a.55.55,0,0,0,0-.18l0,0Zm0-.32v0a0,0,0,0,1,0,0m0-.41v-.07a0,0,0,0,1,0,0s0,0,0,0m0-.14v0h0m0-.57s0,0,0,0h0s0,0,0-.06v.05s0,0,0,0Zm0-.17v0h0v0h0m0,.07v.05h0v-.06h0m0,.08v0h0v0Zm0,.19v.3h0v-.3h0m0,.37v0h0v0Zm0,.1v.08h0v0h0v-.16h0m0,.27v.22h0v-.27a.06.06,0,0,1,0,0m0,.33v.15a.17.17,0,0,0,0-.1v0h0m0,.39v.08h0v-.07Zm0,.11v0h0m0,.11v.07h0v-.06Zm0,.24v0h0v0h0v-.06Zm0,.1v.05h0v-.05Zm0,.1v.09h0v0h0V12.5h0m0,.21v0h0v0Zm0,.1v0s0,0,0,0m0,.17v.06h0V13Zm0,.1v0h0v0Zm0,.27v.06h0v-.06Zm0-3.06v0h0m0-.25v0h0v.1h0v0h0v-.08h0m0,.15v0h0v0Zm0,.07v0a0,0,0,0,0,0,0v0a0,0,0,0,0,0,0v.15a0,0,0,0,0,0,0v-.25m0,.31v.11h0V10.6h0m0,.15V11h0v-.14h0v-.08h0v0Zm0,.35v.26h0v-.29h0Zm0,.36v.06l0,0v0h0m0,.17v.07l0,0v0a.64.64,0,0,0,0-.07m0,.24v.07h0v-.06l0,0m0,.11v0a.06.06,0,0,0,0,0h0v.06h0V12h0m0,.35v.06h0v0l0,0m0,.09v.05h0v-.05h0m0,.1v0h0m0,.07v0h0v0h0m0,.15v0h0v0Zm0,.1v.08h0v-.06h0m0,.16v0h0v0h0m0,.1v0h0v0Zm0,.28v.06h0v0h0m-.05-3.32v.09a.14.14,0,0,1,0-.06l0,0m0,.1v0s0,0,0,0,0,0,0,0h0v0h0v0h0m0,.1v.27h0v0a.22.22,0,0,0,0-.11h0v0s0,0,0,0,0,0,0,0h.18v0l0,0m0,.37v.07h0v0l0,0v-.08h0m0,.16h0l0,0v0h0v0l0,0v0l0,0Zm0,.08V11h0v0h0v-.11l0,0Zm0,.2v.29h0c.05,0,0-.14,0-.19l0-.05V11l0,0m0,.38v.05h0v-.05h0m0,.25v0a.25.25,0,0,1,0,.07v0l0-.06m0,.18V12l0,0v-.06l0,0m0,.1v.14s0,0,0,0h0v0h0s0,0,0,0v0h0m0,.36v.05h0v0s0,0,0,0m0,.07v.05s0,0,0,0,0,0,0,0Zm0,.09,0,0v.12h0l0,0v0a.14.14,0,0,1,0-.06l0,0Zm0,.23v0s0,0,0,0v0l0,0m0,.24V13a.21.21,0,0,1,0-.06V12.9s0,0,0,0l0,0m0,.11v0h0m0,.29v0l0,0v0l0,0m0-.09v-.13s0,0,0,.05v0l0,.06m0-3.12v0h0v0h0m0,.06v0l0,0v-.06h0m0,.1v0h0v0h0m0,.14v0l0,0h0s0,0,0,0h0v.07s0,0,0,0v-.13l0,0m0,.27v0l0,0h0v0l0,0m0,.06,0,0v0l0,0Zm0,0V11h0v-.11h0m0,.12v0h0v0h0Zm0,.07v.07l0,0V11h0m0,.31h0Zm0,.09v0h0v0h0m0,.33v.05l0,0v0l0,0m0,.14V12h0v0h0v-.07h0m0,.12v0l0,0v0l0,0m0,.33v0h0m0,.08v.12h0v0h0v-.12l0,0m0,.29v0a.13.13,0,0,0,0,.06s0,0,0,.06V13a.14.14,0,0,1,0-.07v-.06a.06.06,0,0,1,0-.07m0,.33h0Zm0,.14v.07h0v-.08l0,0m0,.18v.06h0v-.05h0m-.06-3.2h0m0,.05v.06h0l-.05,0v0l0,0v0s0,0,0,0v0h0v0h.06m0,.11v0s0,0,0,0,0,0,0,.05v-.07h0v-.05h.06m0,.17v.13h0a.13.13,0,0,0,0,.06v0s0,0,0,0h0l.05,0v0l-.06-.05v-.12a0,0,0,0,0,0,0s0,0,0,0v0a.09.09,0,0,0,.06,0m0,.32-.05,0h0v.11l.06,0Zm0,.13v0l-.06,0v0l.06,0m0,.06v.05l-.06,0v0l0,0h0m0,.34h-.06v0h.06Zm0,.07v.05h-.06v-.05h.06m0,.37v0l-.06.05v0h0l.05,0m0,.11V12h-.06v0l.06,0Zm0,.13v0a.14.14,0,0,0,0,.11.36.36,0,0,1,0,.09.13.13,0,0,0,.06.07v0a.13.13,0,0,1-.06-.07v-.11h0v0s0,0,0,0v-.06l0,0,0,0m0,.37,0,0h0v0h0l.05,0h0s0,0,0,0l0,0h0Zm0,.66h0l0,0v0h0s0,0,.06,0m0,.15v.08l-.06,0v0a.1.1,0,0,0,.05,0l-.05,0v0l0,0h0m0,.16v.06h-.06v-.05h.06m-.07-.93v0h0v0m0-2.29h0m0,.05v0h0v0h0m0,0v0s0,0,0,0h0v0h0v0l0,0m0,.09v.05l0,0v-.07Zm0,.07v0l0,0h0l0,0v0h0v-.12l0,0m0,.2v.12l0,0h0s0,0,0,0,0,0,0,0v0h0m0,.16v.11h0v-.11Zm0,.14v0h0v0Zm0,.07v0h0v0Zm0,.35h0Zm0,.08v.05h0v-.05Zm0,.43v0l0,0v0l0,0m0,.09v0h0V12h0m0,.15v.06h0v0h0m0,.1v.1h0v-.1Zm0,.18v0s0,0,0,0v0l0,0m0,.05v0s0,0,0,0v0h0v0h0m0,.68h0s0,0,0,0a.08.08,0,0,0,0,0v0h0l0,0v-.09l0,0m0,.2v0h0v0h0m0,.08v.05h0v0h0m0-.8v0s0,0,0,0h0m0-2.42h0v0s0,0,0,0m0,.1v0h0s0,0,0,0m0,.07v.06l0,0v0h0s0,0,0,0h0v0Zm0,.1v.12s0,0,0,0v0s0,0,0,0v0h0s0,0,0,0h0v-.09s0,0,0,0v0l0,0Zm0,.25v0l0,0v0a.05.05,0,0,0,0,0m0,.07v.11h0v-.13Zm0,.15v0l0,0v0l0,0m0,.06v0l0,0v0Zm0,.37h0v0h0Zm0,.08v0h0v0Zm0,.44v0l0,0v0l0,0m0,.08v0h0v0l0,0m0,.16v0l0,0h0v0h0m0,.08v.1h0a.08.08,0,0,0,0,0v.06l0,0,0-.06v-.07h0v-.08Zm0,.24v0h0v0h0m0,.05v0h0a.05.05,0,0,0,0,0v.06s0,0,0,0v0s0,0,0,0,0-.05,0-.08v0h0m0,.66v.09s0,0,0,0,0,0,0,0m0,.18v0l0,0v0l0,0m0,.08v.05l0,0v0l0,0m-.08-3.08v0h0a0,0,0,0,0,0,0v0l0,0h0v0h0v0l0,0,0,0v0h0Zm0,.16v0h0v0h0m0,.06v.09s0,0,0,0l0,0v0h0v0h0v.13l0,0v-.09h0s0,0,0,0v-.09h.08V10.6l0,0m0,.36v0l0,0v0l0,0Zm0,.07v0l0,0v0Zm0,.38h0Zm0,.08v.05h0v0Zm0,.47v0h0v0h0l0,0m0,.07v0h0v0h0m0,.13v0h0v0h0m0,.07v.08h0v-.1l0,0m0,.1v.07l0,0h0v0h0m0,.17v0s0,0,0-.05h0v0h0a.1.1,0,0,0,0,0m0,.19v0h0v0s0,0,0,0Zm0,.68v0l-.05,0v0h0l.05,0m0,.08v0a.1.1,0,0,1-.05,0v0a.1.1,0,0,0,.05,0M10.25,13v0h0v0s0,0,0,0,0,0,0,0m0-.08v0l0,0,0,0m0-.07v0s0,0,0,0,0,0,0-.05v0a.1.1,0,0,1,0,.05v0a.1.1,0,0,1,0,.05m0-.24v-.11l0,.11s0,0,0,0v0Zm0-2.24v0m0,.1v0h0v0h0m0,.06v0h0v0h0m0,.1v.05h0V10.6h0m0,.06v.09h0s0,0,0,0v.09h0v-.16l0,0m0,.23v0h0v0h0m0,.07v0h0v0Zm0,.4h0Zm0,.09v0h0v0Zm0,.46v0l0,0v0l0,0m0,.07v0h0v0Zm0,.11v0h0v0Zm0,.05v.1h0v-.11Zm0,.11v0s0,0,0,.07v0l0-.05v-.09Zm0,.19v.12h0s0,0,0,0a0,0,0,0,0,0,0v0h0v-.09h0s0-.05,0-.07h0v-.05s0,0,0,0m0,.21v0h0v0h0m0,.1v0h0v0h0m0,.07v0h0v0h0l0,0v0l0,0m0,.06v0l0,0h0m0,0v0h0v0h0m0,.35v0h0v0l0,0m0,.08v0l0,0v0l0,0m0-.29v0l0,0s0,0,0,0m0-2.62v0h0v0a.08.08,0,0,1,0,0v0l0,0h0v-.05h0m0,.17v.05l0,0h0v.17l0,0v-.21h0m0,.27v0l0,0h0v0l0,0m0,.08v0h0v0Zm0,.41h0v0h0Zm0,.08v0h0v-.05h0m0,.44v0a.3.3,0,0,1,0-.1v-.05a.56.56,0,0,0,0,.12m0,.11v0l0,0V12h0Zm0,.1v0h0v0h0m0,.05v.11h0v-.12l0,0m0,.12v.09s0,0,0,0a.06.06,0,0,1,0,0h0s0,.08,0,.11a.09.09,0,0,1,0,.07v0h0a0,0,0,0,1,0,0v-.14h0m0,.16s0,.05,0,.06v0s0,0,0,0Zm0,.13v.08l0,0s0,0,0,0m0,.11v0h0l0,0s0,0,0,0l0,0v0l0,0m0,.11v0h0v0l0,0v-.07l0,0m0,.09h0l0,0v.05l0,0h0Zm0,.07v0h0v0s0,0,0,0v0h0v0h0l0,0v-.08l0,0m0,.33v0a.21.21,0,0,1,0-.06v0a.09.09,0,0,0,0,.06m0,.08v0l0-.05v0l0,0M10.15,12v0a0,0,0,0,1,0,0m0,0h0v-.07h0Zm0-1.49v.06l0,0h0l0,0m0,.09v0l0,0v0l0,0m0,.08v.21s0,0,0-.05h0v-.16h0m0,.23,0,0v0l0,0Zm0,.09v0h0v0Zm0,.42h0Zm0,.09v0s0,0,0,0v-.1h0Zm0,.31v.05l0-.05v-.08s0,.06,0,.08m0,.24v.06h0v0h0V12Zm0,.12v.11h0v-.08h0s0,0,0,0h0m0,.12v0Zm0,.19h0m0,.05v0h0v0h0m0,.21v0m0,.06v0a0,0,0,0,0,0,0v0m0,.07v.05l0,0v0h0m0,.08v0m0,.11v0h0v0h0m0,.15v0m0,.11v.05l0,0v-.06s0,0,0,0M10,11.75s0,.05.06.09a.19.19,0,0,0,0,.1v-.06c0-.05,0-.13-.06-.17h0Zm.09.2L10,12v0l.09,0Zm0-1.4v0s0,0,0,0h0v.25A.22.22,0,0,0,10,10.8v-.17s.07,0,.08,0H10l.08,0m0,.39v.29s0,.12,0,.12h0s0-.1,0-.16v-.06c0-.05,0-.2,0-.2m0,.51v.1a.31.31,0,0,0,0,.1.06.06,0,0,0,0,0v.08l0-.1v-.12c0-.05,0-.09,0-.09m0,.56v.11h0s0,0,0,0v.08a.08.08,0,0,1-.06-.08.13.13,0,0,1,0-.06s0,.06,0,.1a.18.18,0,0,0,.07.05v.1l0,0s0,0,0,0v.07s0,.07,0,.11,0,0,0,0l0,0s0,0,0,.05v0a.67.67,0,0,0-.06-.12.36.36,0,0,1,0-.1.06.06,0,0,1,0,0V12.3h0v-.14s0,0,0-.06h0v0h0L10.1,12m0,.44s0,0,0,0a0,0,0,0,0,0,0v0h0Zm0,.3L10,12.64v0l.06.15,0,0v0s0,0,0,0h0Zm0,.15V13a1.21,1.21,0,0,1-.09-.2h0s0,.1.09.15m0,.11,0,0s0-.07-.05-.07h0v0c0,.05,0,.1,0,.13s0,0,0,0a.19.19,0,0,0,0,.07v0a.43.43,0,0,1,0-.05c0-.05-.05,0-.05-.09s0,0,.06.06h0Zm0,.24v.06l0-.1s0-.06,0-.09h0a.3.3,0,0,0,0,.13.11.11,0,0,1,0,.09v0a0,0,0,0,1,0,0v0l0,.05v0s0,0,0-.07,0,0,0,0v0s0,0,0,0,.05.12.05,0,0-.05-.06-.12v-.12l0,0s0,.06.05.12a.25.25,0,0,0,0,.07M10,11.76h0v0H9.94s0,0,0,.06,0,0,0,.06l0,.06V12a.56.56,0,0,0,0-.12s0-.08.06-.08M10,12h0l-.11,0h0L10,12h0Zm0-1.41H9.91a.11.11,0,0,0,.08,0v.17h0a.28.28,0,0,0-.11.07v0a.06.06,0,0,0,0,0v0a0,0,0,0,1,0,0v-.19h0s0,0,0,0v0l.06,0H10Zm0,1.47v0h0c0,.1,0,.2,0,.31a.94.94,0,0,1,0,.16.35.35,0,0,1-.06.14v0a.36.36,0,0,0,0-.32s0,0,0,0,0,0,0,0v-.12s.08,0,.08-.05v-.06l0,0s0,0,0,0v0s0,.06-.07.07v-.08h0V12l0,0,.05,0Zm0,.24v0Zm0,.33h0a.53.53,0,0,1-.1.12v0s0,0,0,0a0,0,0,0,1,0,0v.05l0-.05a.64.64,0,0,0,.06-.18h0v0Zm0,.11h0Zm0,.16h0Zm0,.17v0m0,.23v0h0v0m0,.14h0s0-.06,0-.08a0,0,0,0,1,0,0s0-.08,0-.08-.05.13-.05,0,0-.06.05-.12a.28.28,0,0,1,0-.09,0,0,0,0,0,0-.06c-.05,0,0,.06-.05.12a.31.31,0,0,0,0,.08v.08a1,1,0,0,1,0-.1.44.44,0,0,1,0-.13.28.28,0,0,1,0,.13.15.15,0,0,0,0,.1v0s0,0,0,0a.07.07,0,0,0,0,0c0,.05,0,.06,0,.05Zm-.12-.25v0a.64.64,0,0,0,0-.07c0-.06,0,0,0-.1l0,.06h0v0A.21.21,0,0,0,10,12.9h0S10,13,10,13s0,0,0,.05l0,.1m0-.23v-.07c0-.05.07-.14.09-.15a.85.85,0,0,1-.09.22m0-.44h0a0,0,0,0,0,0,0,.08.08,0,0,0,0,0v0l0,0h0Zm0-.74v-.06s0,0,0-.06v-.07a.14.14,0,0,0,0-.07v-.07h0a.15.15,0,0,1,0,.09.91.91,0,0,1,0,.23Zm0-.42h0s0-.1,0-.12V11h0v-.05h0s0,.16,0,.21v.21h0Zm0-.87v0h0m0,1.46h0v0h0Zm0-1.49v0h0v-.05a0,0,0,0,1,0,0m0,.09v0h0v0h0m0,.07v0Zm0,.22v0h0v0h0m0,.1v0h0v0Zm0,.42h0Zm0,.09v0Zm0,.27v.06a0,0,0,0,1,0,0v-.09m0,.28v.11h0v0s0,0,0,0h0V12Zm0,.12h0s0,0,0,0v.08h0v-.11h0m0,.12v.11s0,0,0,0v-.14Zm0,.19v0h0v0h0m0,.05v0h0v0h0m0,.2v.05h0v0h0m0,.06v0h0v0Zm0,.07v.05h0v-.06m0,.08v0h0m0,.11v0h0v0h0m0,.14v0s0,0,0,0v-.07m0,.11v0m0-2.8v0h0v0h0v0h0m0,.09v0h0v0l0,0m0,.08v.07h0v.15h0V10.7h0v-.06h0m0,.23v0h0v0h0m0,.09v0h.11v0Zm0,.42h0Zm0,.08v.06h0v-.05Zm0,.32v.05l0,0v0l0-.05m0,.15v0h0Zm0,.09v.06h0V12Zm0,.08v0h0v0h0m0,0v.12h0v-.12Zm0,.13v.17h0v0h0v-.12s0,0,0,0h0v0Zm0,.24v0h0v0m0,.2v0h0v-.06h0m0,.06v0h0m0,.08v.05h0v-.05h0m0,.07V13l0,0v0h0v0h0v0h0m0,.11v0h0v0h0m0,.16v0l0,0V13.2Zm0,.1v.06l0,0v-.06h0m-.05-2.83h0v0h0m0,0v0h0v0l0,0v0Zm0,.14v0l0,0V10.6s0,0,0,0m0,.07s0,0,0,0v.09h0l0,0v.09h0Zm0,.17v0l0,0v0s0,0,0,0m0,.09v0h0v0Zm0,.42h0v0h0Zm0,.08v0h0v0Zm0,.36v0a.22.22,0,0,1,0,.08v0a.54.54,0,0,0,0-.11m0,.19v.06l0,0V12h0m0,.09v0h0v0h0m0,0v.11h0v-.1l0,0m0,.13h0s0,0,0,0l0,.09h0v0s0-.06,0-.07v0h0m0,.06s0,.05,0,.07a.07.07,0,0,0,0,0Zm0,.15v0l0,0a.24.24,0,0,1,0,.08s0,0,0,0a.07.07,0,0,1,0,.05v-.05s0,0,0,0v-.11a0,0,0,0,1,0,0s0,0,0,0m0,.21v.06h0s0,0,0,0,0,0,0,0v0h0m0,.08v.06h0l0,0,0,0v.05l0,0v0l0,0h0v0l0,0h0v0h0m0,.16h0v0h0Zm0,.06v0h0v0h0s0-.05,0-.07m0,.23v0l0,0s0,0,0,0v0l0-.07m0,.09v.06l0,.05v-.06l0,0M9.7,10.38v0h0a0,0,0,0,1,0,0m0,0v0l0,0,0,0v0h0v0h0l0,0v0l0,0h0v0h0m0,.16v0h0v0h0Zm0,.11v.05h0v.11s0,0,0,0h0v.09l0,0v-.12h0s0,0,0,0h0v0a0,0,0,0,1,0,0l0,0v-.09l0,0m0,.3v0h0v0h0l0,0m0,.07v0l0,0v0Zm0,.4h0v0h0Zm0,.08v0h0v0Zm0,.47v0H9.66v0h.05m0,.07v.05H9.66v0Zm0,.11v0l0,0v0h0Zm0,.05v.1H9.66v-.09l.05,0m0,.11v0h0v0h0m0,.1v0s0,.05,0,.05h0s0,0,0-.06Zm0,.09v.11h0v0l0,0,0-.12m0,.16v0H9.66v0h.05m0,.06h0a.09.09,0,0,0,0,.06,0,0,0,0,0,0,0v0s0,0,0-.06v0a.07.07,0,0,1,0-.05m0,.17v0a0,0,0,0,1,0,0l0,0m0,.06h0l0,0h0v0h0s0,0,0,0,0,0,0,0m0,.37v0s0,0-.05,0v0l0,0Zm0,.08v.06l-.05,0v0l.05,0m-.08-3H9.58v0l0,0Zm0,0v0h0l0,0v0l-.05,0v-.06h.05m0,.12v0h0v0h0v.09h0s0,0,0,0h0v0s0,0,0,0a.13.13,0,0,0,0-.06s0,0,0,0v-.13s0,0,0,0m0,.2v0l0,0h0l0,0m0,.07v.12h0l0,0V10.8l0,0m0,.15v0l0,0v0l0,0m0,.07v0l0,0v0Zm0,.38h0Zm0,.08v.05h0v-.05Zm0,.47v0h0v0l0,0m0,.07v0h0v0h0Zm0,.13v0l0,0v0h0m0,.06v.09h0v.07l0,.06v0s0,0,0,0,0,0,0,0v-.1Zm0,.27h0m0,.19v0h0a0,0,0,0,1,0-.05v0s0,0,0,0h0v0h0v0s0,.05,0,.08a0,0,0,0,0,0,0Zm0,.68v0l-.05,0v0l.05,0m0,.08v0l-.05,0v-.05l.05,0m-.05-.15v-.09a.09.09,0,0,1,0,0,.06.06,0,0,1,0,0m0-3v0h0s0,0,0,0,0,0,0,0m0-.05h0m0,0v0s0,0,0,0v0h0m0,.08v0h0v0h0s0,0,0,0v0Zm0,.06v.07l0,0v-.05h0m0,.1v.13h0v0s0,0,0,0h0s0,0,0,0v0l0,0m0,.18v0s0,0,0,0,0,0,0,0h0v0h0v-.12h0Zm0,.15v.11h0v-.11Zm0,.14v0h0v0Zm0,.07v0h0v0Zm0,.36h0Zm0,.08v0h0v0Zm0,.45v0h0v0Zm0,.07v0h0v0Zm0,.16v0h0v0Zm0,.07v.1h0v-.08Zm0,.17v.06l0,0v0l0,0m0,.08v0h0s0,0,0,0v0s0,0,0,0v0Zm0,.12v0m0,.58v.1l0,0h0v0a.07.07,0,0,0,0-.05l0,0v0l0,0m0,.19h0Zm0,.07v.05h0v0h0m-.06-3.21H9.45v0h.06m0,0v0h0v0l0,0s0,0,0,0a0,0,0,0,0,0,0h0a.06.06,0,0,1-.06,0v-.06h.06m0,.13v0h0a0,0,0,0,0,0,0v0l0-.05,0,0v0h.06m0,.18v0s0,0,0,0v.14l-.06.05v0l.05,0h0l0,0v-.06a.07.07,0,0,0,0-.05h0v-.13a.07.07,0,0,0,.06,0m0,.26-.06,0V11l.06,0Zm0,.14v0l-.06,0v0l.06,0m0,.06v0l-.06,0v0h0l0,0m0,.36h0Zm0,.08v0H9.45v0h.06m0,.43v0l-.06-.05v0a.1.1,0,0,0,.05,0Zm0,.08v0H9.45V12l.06,0m0,.16v0h0s0,0,0,.05h0v.11a.16.16,0,0,1-.07.07v0a.16.16,0,0,0,.06-.08.12.12,0,0,1,0-.08.21.21,0,0,0,.26-.09v-.06h0l0,0m0,.28h0l0,0v.13h0s0,0,0,0,0,0,0,0h0l0,0h0Zm0,.06v0h0m0,.66v0l0,0,0,0h0a.07.07,0,0,1,.06,0m0,.1v0l0,0a.05.05,0,0,0,0,0v0l-.06,0v-.08h0s0,0,.06,0m0,.19v.05H9.73v-.06h.06m-.1-3.21h0v0l0,0Zm0,0v.07l0,0v0h0m0,.11v0h0v0l0,0m0,.16v.12h0l0,.06v-.08s0,0,0-.06l0,0v0l0,0m0,.19v0h0a0,0,0,0,1,0,0v0l0,0m0,.08,0,0v0l0,0Zm0,0V11h0v-.11h0m0,.12v0h0v0h0m0,.07v.05l0,0v-.07h0m0,.31v0h0v0Zm0,.09v.05h0v0Zm0,.38v0l0,0v0l0,0m0,.11V12h0v0h0v-.05h0Zm0,.13v0l0,0v0l0,0m0,.31v0h0v0h0m0,.05v.13h0l0,0v-.14l0,0m0,.66v0h0m0,.15v.08h0l0,0v-.07h0m0,.17v.06h0V13.4h0m0-.44v0a.28.28,0,0,0,0-.09.06.06,0,0,1,0,0v0a.23.23,0,0,1,0,.2m0-2.78v0h0v0h0s0,0,0,0h0v0Zm0,.06v0h0s0,0,0,0a.05.05,0,0,0,0,0v0h0v0a.16.16,0,0,0,0,.09v0h0v-.27h0m0,.37v.09h0l0,0v0h0v-.07l0,0m0,.14,0,0h0v.08l0,0v0h0v0h0Zm0,.1V11h0v0h0v-.13l0,0m0,.2v.07s0,0,0,0,0,.18,0,.19v0h0V11.1l0,0m0,.4v0h0v0h0m0,.33v0l0-.07v0l0,.06Zm0,.14V12l0,0v-.07l0,0m0,.07v0h0v0h0s0,0,0,0V12h0m0,.39v0h0v0l0,0m0,.07v.13h0a0,0,0,0,1,0,0v0s0,0,0-.06h0v0h0l0,0m0,.31v0s0,0,0,0v0l0,0m0,.16v0l0,0v0l0-.06m0,.17h0m0,.13v.08a.14.14,0,0,1,0-.1s0-.05,0-.05h0v.07m0,.17v.06h0v-.06h0m0-.93s0,0,0,0,0,0,0,0h0Zm0-2.33v-.08s0,0,0,0,0,0,0,.05m0-.08v.1h0v0h0v-.06a0,0,0,0,0,0,0h0v0h0Zm0,.15v0h0v0Zm0,.06v.13h0v-.12h0m0,.36v.08h0v-.07m0,.09v.07h0v.08h0V11h0v-.16h0v0h0v-.06s0,0,0,0m0,.37v.29h0V11.1h0m0,.37v0Zm0,.25v0a0,0,0,0,0,0,0v-.08s0,0,0,.07m0,.18V12h0v-.07h0m0,.1v.15h0v-.06h0a0,0,0,0,1,0,0V12h0m0,.36v.05h0v-.05Zm0,.07v.05h0v0h0m0,.08v.05l0,0v-.07h0m0,.08v0h0v0h0m0,.16v0h0v0h0m0,.25v0h0m0,.12h0m0,.28v.06h0v-.06Zm0-.47h0m0-2.85v0h0v0h0m0,.06v.06h0v0h0m0,.09v0h0v0Zm0,.07v0a0,0,0,0,1,0,0m0,.12v.17s0,0,0,0v.11h0V10.4h0Zm0,.35v.06h0v-.05Zm0,.1V11h0v0h0v-.1h0m0,.24v.27h0v-.22a.08.08,0,0,1,0,0Zm0,.36v.06a.17.17,0,0,0,0,.1v-.16Zm0,.42v.07h0v-.07h0m0,.11v0Zm0,.1v.06h0v-.07h0Zm0,.25v.05h0v0h0v0Zm0,.09v.05h0v-.05Zm0,.09v.08h0v0h0v-.08h0m0,.23h0Zm0,.09v0m0,.16v.06h0V13Zm0,.1v0h0v0Zm0,.28v.06h0v-.07Zm0-3.31v0a.13.13,0,0,1-.07.06V10.1h0a.11.11,0,0,0,.07,0m0,.06s0,0,0,.07h0s0,0,0,0h0s0,0,0,0h0Zm0,.27v.3s0-.08,0-.08h0V10.5s0,.06,0,.06l0,0s0,0,0,0,0-.06,0-.06h0v-.06s.06,0,.08,0m0,.37v0h0v0m0,.1v0m0,.1v0h0s-.05,0-.06.05v0l0,0,0,0m0,.16v0m0,.32v.24a.51.51,0,0,1,0-.13s0-.07,0-.1h0m0,.4h0a.52.52,0,0,1-.07-.25v.31a.36.36,0,0,1,.07.1v0l0-.07v0s0,0,0,.06Zm0,.22v.07a.2.2,0,0,0,0,.07.35.35,0,0,1-.05.13h0v-.05h0a.24.24,0,0,0,0-.08.15.15,0,0,0,0-.09h0V12h0a.08.08,0,0,0,.06,0m0,.24h0s0,0,0,0v0c-.05,0,0,.05,0,.08v0h0v.07H9.5v0h0v-.08h0a0,0,0,0,1,0,0h0s0,0,0,0v-.05s0,0,0,0,0,0,0,0v0h0v0l0,0Zm0,.42v0h0m0,.08v.11a.19.19,0,0,1-.07.06v0h0V12.9c.05,0,.07,0,.06-.08m0,.18v.06h0l-.06,0V13l.07,0m0,.1h0a.11.11,0,0,0-.06.1.2.2,0,0,0,.06.15h0v.06l0,0a.16.16,0,0,1-.06-.08v-.18h0s0,0,.06,0m-.1-2.33v0h0v0m0-.42v-.07h0v0s0,.1,0,.1Zm0-.25v0h0s0,0,0,0v0l.07,0m0,.15v0s0,0,0,0l0,0m0,0v.06h0l0,0m0,.07v.06s0,0,0,0l0,0v.14s0,0,0,0,0,0,0-.07h0v0a0,0,0,0,0,0,0v-.09h.05m0,.36v0a.35.35,0,0,1-.06.14v-.09a.25.25,0,0,0,0-.12.08.08,0,0,0,0-.06v0a.15.15,0,0,1,.06.09m0,.3v.17c0,.12,0,.29,0,.39v.33h0s0,0,0,0v0a.11.11,0,0,0,0,.08v.1a.11.11,0,0,0,0,.06.36.36,0,0,0,0,.1v.05a.11.11,0,0,1,0-.08l0,.05v-.58h0a.09.09,0,0,0,0-.07s0-.09,0-.09h0v-.08a.08.08,0,0,0,0,0v-.11a.05.05,0,0,0,0,0v-.06s0-.08,0-.1v-.17h.06m0,1.42v.05l-.06,0v0h0s0,0,0,0m0,.06h0l0,0v.06h.06Zm0,.24v0a.09.09,0,0,0-.06.08.06.06,0,0,0,0,.06h0V13a.07.07,0,0,1-.06,0v-.11a.12.12,0,0,1,.06-.06m0,.23v0H9.38v0h.06Zm0,.06v.05H9.38v0l.06,0m0,.13v.18a.28.28,0,0,1,0-.18m-.1-2.93h0l0,0Zm0-.15v0h0l0,0v0l0,0m0,.13v0l0,0v0l0,0m0,.27v0s0,0,0,0v-.09a.07.07,0,0,1,0,0h0m0,.14v0h0v0h0m0,.19v.09a.13.13,0,0,0,0,.06.09.09,0,0,0,0,0h0l0,0V10.9l0-.07m0,.24v.17h0s0,0,0,.06,0,0,0,0v-.08l0,0h0v-.09l0,0Zm0,.26v.07h0v-.08l0,0h0m0,.17v.07a.08.08,0,0,0,0,.05.43.43,0,0,0,0,.11v.34h0v-.62h0a.07.07,0,0,1,0,0m0,.69v.11h0l0,0v-.08s0,0,0,0Zm0,.31v0h0v0h0m0,0v.07l0,0v-.06l0,0m0,.27v.11a.14.14,0,0,1,0-.07l0,0m0,.18v0h0v0h0m0,.07v0h0v0h0m-.07-3v0a.29.29,0,0,0-.1,0v0l.1,0m0,.12v0h0s0,0,0,0h0v0h0a0,0,0,0,0,0,0l0,0v0a.39.39,0,0,1,.1.08m0,.25v.1h0a.36.36,0,0,0,0-.09s0,0,0,0v0s.06,0,.06,0a.08.08,0,0,0,0,0s0,0,0,0v0s0,0-.07,0h0a.1.1,0,0,1,.06.09s0,.05,0,.08v0m0,.17v0h0l0,0h0v0l.05,0,0,0m0,.27V11a.07.07,0,0,1,0,0v-.06m0,.16,0,0a.09.09,0,0,1,0-.07s0-.05,0-.07v-.16l0,0a.08.08,0,0,0,0,0v.25h0v0h0v0h0s0,0,0,0,0,0,0,0h0s0,0,0,0,0,0,0,0,0,0,0,0h0s0,0,0,0Zm0,.13v.08h0s0,0,0,.05v-.06s0,0,0,0,0,0,0,0v0s0,0,0,0l0,0s0,0,0,0,0,0,.06,0h0m0,.13a0,0,0,0,0,0,0s0,0,0,0,0,0,0,0,0,0,0,0,0,0,0,0h0v.11h0s.05,0,.05.05,0,.06,0,.1,0,0,0-.07l0,0Zm0,.15v.62a.13.13,0,0,0,0,.12v0a.19.19,0,0,0,0,.07v0l0,0s0-.08,0-.11l0,0V12.2l0,0a0,0,0,0,0,0,0l0,0v-.06A.13.13,0,0,0,9.25,12a.35.35,0,0,0,0-.14s0-.13,0-.13h.18l0,0,0,.19v-.12a.13.13,0,0,0,0-.06h0v-.06a.16.16,0,0,0,.08-.13s0,0,0,0l-.06,0h0v-.2h0s0,0,0,.08a.22.22,0,0,1,0,.08s.06-.07.08-.08m0,1h0l-.08.07h0v0l0,0,.07-.05m0,.05-.05,0s0,0,0,.05v.09a.34.34,0,0,1,.09-.12h0Zm0,.42v0l-.07,0h0v0a.14.14,0,0,0,.1.07m0,.07v0a.19.19,0,0,1-.1,0v0a.19.19,0,0,0,.1,0m-.12-2v0h0v0m0-.74,0,0s0,0,0,0,0,0,0,0Zm0-.17h0Zm0-.12v0h0v0h0m0,.07v0h0s0,0,0,0v-.05h0m0,0h0s0,0,0,.06h0v0s0,0,0,0v0Zm0,.1v0h0a.05.05,0,0,1,0,0h0l0,0h0m0,.05v0h0v0h0Zm0,.09v0h0v0h0m0,.19v0h0m0,.07v.22h0s0,0,0,0,0,0,0-.05v0h0s0,0,0,0v-.1h0l0,0m0,.26v0s0,0,0,0v0l0,0m0,.06v0h0s0,0,0,0m0,.06v0a.19.19,0,0,0,0,.08s0,0,0,0h0v0l0,0s0,0,0,0a.08.08,0,0,1,0,0s0,0,0,0v-.06h0v0l0,0h0m0,.21,0,0h0v.07s0,0,0,0l0,.06v.1a.08.08,0,0,1,0-.05.09.09,0,0,1,0-.06Zm0,.14v.2s0,0,0,.06,0,.06,0,.06v.06h0s0,0,0,0l0,0v-.21s0-.12.06-.15m0,.42v.12a.06.06,0,0,1,0,0v.09h0v.07h0s0,0,0,0a0,0,0,0,0,0,0v-.07a.09.09,0,0,0,0-.06s0-.05,0-.06h0v-.06a.18.18,0,0,0,0-.07m0,.36v.08h0V12.2h0m0,.41v0l0,.09v0a.24.24,0,0,1,.06-.08m0,.06,0,0a.26.26,0,0,0,0,.28v0a.17.17,0,0,1,0-.17Zm0,.37v0a.08.08,0,0,1,0,0l0,0v0l0,.05,0,0m-.08-1.8v0h0Zm0-1.17v0s-.05,0-.06,0v0s0,0,.06,0m0,.07v.05h0v0h0v0H9.23v0s0,0,0,0v0h0s0,0,0,0m0,.2v0l-.07,0v0l.06,0Zm0,.06h0v0a.1.1,0,0,1-.07,0v0s0,0,.07,0m0,.2h0l-.06,0v0l.06,0m0,.06v.1l0,0,0,0a.05.05,0,0,0,0,0v0H9.3m0,.13v0l0,0Zm0,.07h0s0,0-.06,0v-.06s.06,0,.06,0m0,0h0m0,.07v0l0,0s0,0,0,0,0,0,0,0l0,0,0,0v0h0s0,.05,0,.06h0V11s0,0,.06-.05Zm0,.19-.05,0h0l0,0h0Zm0,.06v0l0,0,0,0v.07h0l0,0,0,.06v0l0-.1h0l0,.06v-.17a0,0,0,0,0,.06,0Zm0,.18-.06.1v.06h0v.05l0,0a0,0,0,0,1,0,0h0s0,0-.06.06v0h0s0,0,0,0v0l0,0s0,0,0,0V12l.07,0v-.06l-.05,0s0,0,0,0a.16.16,0,0,1,.06-.13v-.21h0s0-.05,0-.07h0s0,0,0,0v-.15Zm0,.68v.07l0,0v0h0v.06H9.25v0a0,0,0,0,0,0,0s0-.06,0-.06h0v-.07h.07m0,.61v0a.45.45,0,0,0,0,.11.23.23,0,0,0,0,.14v0a.34.34,0,0,1-.05-.17.42.42,0,0,1,0-.15M9.24,11v0h0m0-.18h0Zm0-.67v0a.08.08,0,0,0,0,.05v0a.18.18,0,0,1,0-.06l0,0m0,.14v0l0,0h0m0,.07v0h0v0h0m0,.06v0l0,0v0h0m0,.2v0h0v0h0Zm0,.08v0h0v0Zm0,.13h0v0l0,0m0,.05v.06s0,0,0,0a0,0,0,0,0,0,0h0v0l0,0s0,0,0,0h0v.11h0l0,0s0,0,0,0h0V10.8h0m0,.35v0h0Zm0,.06h0s0,0,0,0v-.06h0s0,0,0,0v.11h0a.09.09,0,0,1,0,0s0,0,0,0v0l0,0Zm0,.22v0l0,0,0,0v0l0,0m0,.05h0l0,0v.05l0,0h0Zm0,.08v0l0,0v0l0,0m0,.1v0h0v0h0m0,.16V12l0,0v0l0,0s0,0,0,0l0-.11Zm0,.25v.07l0,0v0l0,0h0v-.07h0m0,.15v0h0v0h0m0,.32v-.11a0,0,0,0,1,0,0s0,0,0,.07,0,0,0,0m0-2.38v0h0v0s.05,0,.05,0m0,.12v0h0s0,0-.05,0v0a.06.06,0,0,1,.06,0m0,0v0l0,0h0m0,.2v0h0s0,0,0,0v0h0a.1.1,0,0,0,0,0m0,.08v.05l0,0a.05.05,0,0,0,0,0v0l0,0h0l0,0V11l0,0v0a.05.05,0,0,0,0,0h0s0,0,0,0v0h0v0s0,0,0,0v0h0v0h0v-.22h.05m0,.52v.17a.23.23,0,0,0,0,.07h0v0a.16.16,0,0,0,0-.07h0a.43.43,0,0,1,0,.07v0a.07.07,0,0,0,0-.05h0v-.14h0s0,0,0,0h0m0,.24v0h0l0,.05v-.05l0,0Zm0,.1h0l0,.05v0l0-.06Zm0,0v.05l0,0v0a.12.12,0,0,0,0-.05m0,.08,0,.05v.05h0v0h0v0l0,0Zm0,.39h0s0,0,0,0l0,0v.06l0,0v-.06l0,0,0,0m0,.17v0l0,0,0,0v0h0l0,0m0,.07v0l0,0v-.05l0,0Zm0,.19v.12l0,0h0v0h0v0s0,0,0,0l0,0v0l0,0m-.07-1.5h0v0Zm0-.71v0c-.06,0-.08.1,0,.13a.14.14,0,0,1,0-.07v0h0v0s0,0,0,.06A.06.06,0,0,1,9,10.36V10.3a.11.11,0,0,1,.07-.08Zm0,.28v0l0,0v0s0,0,0,.05,0,0,0,0h0l0,0v.21h0s0,0,0,0,0,0,0,0h0s0,0,0-.06,0,0,0,0,0,0-.05,0H9v0a0,0,0,0,0,0,0H9v0H9s0-.11,0-.11,0,0,0,.06m0,.36v0h0m0,.05v0H9.05l0,0v-.06s.06,0,.08,0m0,.05v0H9.05s0,0,.06,0m0,.1v0h0l0,0m0,.06h0s0,0,0-.06,0,0,0,0h0s0,0,0,0H9v.13s0,0,0,.06H9v.06l.06,0h0a.28.28,0,0,1-.05.09H9l.07-.07Zm0,.2v0L9,11.44v0a.36.36,0,0,0,.07-.1m0,0,0,.06,0,0v0H9l0,0,0,0Zm0,.1v0l0,.05,0,0v-.05l.07-.08Zm0,.1L9,11.63h.07v0l0,0,0-.06Zm0,.11v0h0v0m0,.39v.06s0,0,0,0a.06.06,0,0,1,0,0m0,.16v0l0,0H9v0h0l0,0m0,.06s0,0,0,.05h0a.16.16,0,0,0,0,.07l0,0v0l0,0h0l0,0Zm0,.28v.06h0l0,0H9v0h0s0,0,0,0H9v0s0,0,0,0a.11.11,0,0,0,0-.06l0-.05v0H9a.36.36,0,0,1,0,.09h0s0,0,0,0v0h0M9,10.85s.05,0,.05,0,0,0,0,0,0,0,0,0Zm0-.1H9l0,0Zm0-.45v0H9m0,.26v0l-.15,0v0H9m0,.06v0s0,0,0,0l0,0v0l0,0,0,0v.05l0,0,0,0v0l0,0v0H9v.17l0,0-.07,0-.06,0h0l.07,0,0,0s0,0,0,0l-.13.06h0v0A.39.39,0,0,0,9,11.08s-.05,0-.06,0H8.85v0h0S9,11,9,11l-.1,0h0v0h0S9,11,9,11s0,0,0,0v0s0,0-.08,0h0c.05,0,.09,0,.09,0s0,0-.09,0v0c.06,0,.12,0,.12-.06s0,0,0,0,0,0,0,0l0,0h0l0,0h0s0,0,0,0H8.85v0c.05,0,.09,0,.09,0h0l-.09,0v0h0l.14,0m0,.6,0,0-.11,0h0v0a.23.23,0,0,0,.11,0l0,0Zm0,.12v0l-.16.1v0l.16-.1m0,.1-.09.08-.06.05h0l.1,0,0-.06v0a.24.24,0,0,1-.09.08L9,11.43Zm0,.11v0l-.08.07-.07,0v0A.41.41,0,0,0,9,11.56l0,0m0,.72v0s0,.05-.09.05a.09.09,0,0,1-.07,0h.05v0s0,0-.05,0v0a.27.27,0,0,0,.08.07.88.88,0,0,0-.06-.1h0v0h0s0,0,.05.06a.18.18,0,0,0,.05.07s0,0,0,0m0,.11v0l-.06,0h-.1v0h.07c.05,0,.06,0,.09,0m0,.19v0H9s0,0,0,0H9v0a0,0,0,0,1,0,0v0H9s0,0,0,0H9m-.17-2v0l-.08,0v0l.06,0Zm0,.09v.05l-.08,0v0l.08,0m0,.1v0H8.76v0l.08,0m0,.08v0H8.76v0h.08Zm0,0v0H8.76v0h.08m0,.1h0m0,.07h0l-.08,0v0h.08m0,0v0H8.76v0h.08Zm0,.09v0H8.76v0h.08m0,.09h0l-.08,0v0h.08m0,0v0H8.77v0Zm0,.15v0l0,0s0,0,0,0v-.14a.13.13,0,0,1,0,.06h.06m0,.13h0m0,.08v0H8.77v0h.07m0,.52v0a.05.05,0,0,1,0,0s0,0,0,0h0v0h0v0l0,0s0,.05,0,.07m0,.06h0a.08.08,0,0,0,0,0l0,0v0h0s0,0,0,.05h0Zm0,.09H8.78v0h.07Zm0,0h.08l-.06,0h0v0s0,0,0,0H9Zm-.1-2v-.16a.08.08,0,0,1,0,.06h0a.19.19,0,0,1,0,.08m0-.15v0a.1.1,0,0,0-.05,0v0l.05,0m0,.08v.07h0l0,0h0v0l0,0,0,0m0,.2v0l-.05,0v0l.05,0m0,.09v0h0l0,0v0l.05,0m0,.1v0l-.05,0v0h.05m0,.08v0H8.7v0l.05,0m0,.05v0h0l0,0v0l.05,0m0,.13v0H8.7v0h.05m0,.07v0h0m0,0v0H8.7v0h.05m0,.1v0H8.7v0h.05m0,.09h0v0H8.7v0h.05m0,.12v.14h0a.1.1,0,0,1-.05,0v0h0s0-.06,0-.09,0,0-.05-.06h0a.05.05,0,0,1,.05,0m0,.27v0H8.7v0h0v0l.05,0m0,.41v0s0,0,0,0h0v0h0m0,0h0l0,0v0s0,0,0,.05,0,0,0,0v0h0v0Zm0,.19v0l0,0v0l0,0m0,0v0h0v0h0m-.05-.74h.11m0-1.38v0H8.69v0H8.8m0,.19v0s0,0,0,0a.05.05,0,0,0,0,.05v0h0l0,0s0,0-.06,0v-.07a.07.07,0,0,0,.06,0h0v0h0l-.05,0v-.05h0s.07,0,.07.08h0s0,.05,0,.05h0m0,.19v0s-.1-.07-.09-.1l.09.06m0,.12v0l-.1,0h0v0a.39.39,0,0,0,.11.06m0,.07v0l-.06,0a.1.1,0,0,0,.06.05v0c-.11-.06-.08-.11-.07-.11l.07,0m0,.2v0a.08.08,0,0,1-.07,0l-.05,0v0a.14.14,0,0,0,.12,0m0,.08h0L8.7,11h0l.11,0m0,0H8.7v0l.11,0Zm0,.12v0H8.7v0h.11m0,.08v0l0,0,0,0m0,.08v0l-.06,0a.05.05,0,0,0-.05,0v0s0,0,.05,0h.06m0,.16v.06h0s0,0,0,0,0,0,0,0l0,0h0s0,0,0,0,0,0,.05,0v0l-.07,0s0,0,0,0l0-.05h0a.06.06,0,0,1,.06,0l.06,0m0,.17a.43.43,0,0,1-.12-.05v0a.17.17,0,0,0,.11,0Zm0,.38h0v0h0s0-.05,0-.05h0m0,.2v0l0,0s0,0,0,0,0,0,0,.05h0v0h0l-.08,0s0,0,0,0v-.05h0s0,0,0,0h0s0,0,.06,0h0l0,0m-.13-1.36a.15.15,0,0,0,0-.13Zm0-.69v0h0v0h0m0,.06v0s0,0,0,0l0,0v.07h0v0s0,0,0,.05a.14.14,0,0,1,0-.07h0v-.15h0m0,.37v0l0,0v-.06l0,0m0,.12v.12l0,0,0,0v0h0v-.06s0,0,0,0a.16.16,0,0,0,0-.09v0l0,0Zm0,.27h0v0Zm0,0v0h0v0h0m0,.12v0h0v0h0m0,.17v0l0,0v0l0,0m0,.27v0l0,0v0l0,0Zm0,.65h0s0,0,0,.05l0,0v.05s0,0,0,0v0a0,0,0,0,1,0,0M8.63,10.2v0l-.05,0s0,0,0,.06l0,.08s0,.06,0,.09a.14.14,0,0,0,0,.06s0,0,0,0h0s0,0,0,0a.43.43,0,0,1,0-.05.23.23,0,0,1,0-.14.12.12,0,0,1,.05-.05v.15h0a0,0,0,0,0,0,0h0a.21.21,0,0,0,.05.13v.05l-.07-.07a.79.79,0,0,1,0-.09v-.15a.35.35,0,0,1,.05-.08.1.1,0,0,1,.06-.05m0,.51v0a.09.09,0,0,0-.1,0v0h0a.09.09,0,0,1,.1,0m0,.16v.05h-.1v0s0,0,0,0h0v-.08s0,0,0,.09h0l.06,0m0,.14h0v0A.13.13,0,0,1,8.58,11h.07m0,.15v0l-.09,0h0v0a.18.18,0,0,0,.1,0m0,.2v0a.11.11,0,0,0,0,.08.12.12,0,0,0,0,.1v0a.21.21,0,0,1-.05-.13h0a.22.22,0,0,1,.05-.11m0,.92v0s0,0,0,0m-.13-1.95v.16a.25.25,0,0,1,0-.08.22.22,0,0,1,0-.08m0,.35v0h0a.22.22,0,0,0-.13.19.31.31,0,0,0,0,.13.34.34,0,0,0,0-.1v0a.13.13,0,0,1,.08-.11s0,0,.06,0h0v.08l0,0,0,0s0,.05,0,.05h0v0h0a0,0,0,0,0,0,0h0a.07.07,0,0,0,0,0,.14.14,0,0,0,.08.12v0a.25.25,0,0,1-.12-.08.28.28,0,0,1-.06-.18.27.27,0,0,1,.05-.15.15.15,0,0,1,.12-.07Z"/><path class="cls-12" d="M10.13,18.83h0v0a.57.57,0,0,1,.24.52h0l.07-.08a.59.59,0,0,1,.16.58,2.63,2.63,0,0,1-.06.39c.26-.22.73-.4.94,0s0,.59-.26.89c.1.23-.4.19-.3-.19,0,0,.12-.27,0-.28s-.37.39-.43.55a.16.16,0,0,1,.1.16.12.12,0,0,1,0,.17.09.09,0,0,1-.11.05c.06.24.21.34.23.2v-.11c.08.1.24.24,0,.38a.35.35,0,0,1-.44,0l-.22.29L9.89,22c-.44.3-.7-.17-.47-.28l.07,0c0,.07,0,.11,0,.14s.15-.17.16-.25a.13.13,0,0,1-.12-.14.1.1,0,0,1,0-.09c0-.06,0-.12.1-.15-.1-.54-.6-.76-.45-.32s-.27.45-.32.3a.08.08,0,0,1,0-.08c-.11-.19-.41-.25-.33-.67.11-.59.7-.48,1-.2a1.24,1.24,0,0,1,.08-1s.07.09.09.09a.63.63,0,0,1,.24-.52v0h0l0,0Z"/><path class="cls-13" d="M9,21.15a.2.2,0,0,0,0-.08,1.43,1.43,0,0,0-.18-.18.34.34,0,0,1-.11-.17.7.7,0,0,1,0-.25.64.64,0,0,1,.1-.24A.37.37,0,0,1,9,20.1l.12,0h.14a.87.87,0,0,1,.55.34,1.46,1.46,0,0,1,0-1.05v0a.05.05,0,0,0,.05,0s0,0,0,0h0v-.06a.58.58,0,0,1,.2-.45h0a.49.49,0,0,1,.21.46v0h0v.05h0a.15.15,0,0,0,.06-.05v0a.59.59,0,0,1,.1.5,3.53,3.53,0,0,1-.1.55,1,1,0,0,1,.29-.24.9.9,0,0,1,.27-.11.36.36,0,0,1,.27,0,.39.39,0,0,1,.16.15.47.47,0,0,1-.09.66h0l-.18.2a.06.06,0,0,1,0,.07.07.07,0,0,1-.06,0,.18.18,0,0,1-.09,0A.21.21,0,0,1,11,21a.39.39,0,0,0,0-.24.11.11,0,0,0,0-.07.08.08,0,0,0-.07,0,.31.31,0,0,0-.18.07,1.48,1.48,0,0,0-.3.55l.08.05a.08.08,0,0,1,0,.1h0a.1.1,0,0,1,.05.06.06.06,0,0,1,0,0,.05.05,0,0,1,0,0,.19.19,0,0,1-.13,0,.63.63,0,0,0,.11.28.27.27,0,0,0,.08.07.09.09,0,0,0,.07,0,.11.11,0,0,0,.07-.1.14.14,0,0,1,0,.17l-.06.06-.1,0a.3.3,0,0,1-.32-.09l-.06.07c-.06.06-.1.14-.16.21h0c0-.06-.07-.1-.1-.15L9.89,22a.4.4,0,0,1-.39.1A.25.25,0,0,1,9.4,22a.14.14,0,0,1,0-.09c0-.06,0-.09.06-.11a.11.11,0,0,0,.08.1.06.06,0,0,0,.07,0,.23.23,0,0,0,.07-.07.49.49,0,0,0,.1-.26.11.11,0,0,1-.11,0l0,0v-.05a.07.07,0,0,1,.05,0v0s0-.07.1-.13,0-.05,0-.07l0-.09a.83.83,0,0,0-.27-.42.33.33,0,0,0-.15,0,.11.11,0,0,0-.07,0,.1.1,0,0,0,0,.07.4.4,0,0,0,0,.19h0c.06.2,0,.28-.09.31a.11.11,0,0,1-.08,0,.09.09,0,0,1-.06,0s0,0,0-.05"/><line class="cls-14" x1="8.95" y1="20.1" x2="8.95" y2="20.1"/><path class="cls-1" d="M10,21.55c-.2,0-.12.11-.23.26s-.23.12-.27.09c.09.2.35,0,.42-.07a.32.32,0,0,0,.08-.28"/><path class="cls-1" d="M10.22,21.54a.45.45,0,0,1-.23,0c.06.23-.09.25,0,.37a.63.63,0,0,0,.16.27.69.69,0,0,0,.15-.28c0-.13-.08,0,0-.36"/><path class="cls-1" d="M10.3,21.55c-.08.41.33.51.44.37-.21.12-.26-.13-.32-.28s-.06-.09-.12-.09"/><path class="cls-1" d="M10.51,21.42h-.8a.09.09,0,0,0-.06,0v0l0,0a.1.1,0,0,0,.1,0,1.3,1.3,0,0,1,.34,0,2,2,0,0,1,.34,0h0a.2.2,0,0,0,.11,0s0,0,0,0a0,0,0,0,0,0,0,.12.12,0,0,0-.05-.05"/><path class="cls-1" d="M10.43,21.27a3.42,3.42,0,0,0-.64,0h0c-.1.05-.11.08-.1.09s0,0,0,0h.8a.06.06,0,0,0,0-.06h0l-.07,0"/><path class="cls-13" d="M10.33,21.23h.08a1.59,1.59,0,0,1,.31-.57.5.5,0,0,1,.2-.08.15.15,0,0,1,.09,0,.18.18,0,0,1,0,.09A.43.43,0,0,1,11,21a.19.19,0,0,0,.06.21l.07,0s0,0,0,0a.06.06,0,0,0,0-.05h0a.16.16,0,0,1-.06-.13.2.2,0,0,1,0-.13h0a2,2,0,0,0,.1-.26.41.41,0,0,0,0-.19.15.15,0,0,0-.12-.12.25.25,0,0,0-.12,0h0c-.22,0-.37.22-.47.44a1.5,1.5,0,0,0-.14.5"/><path class="cls-1" d="M10.31,21.2a1.74,1.74,0,0,1,.14-.48c.1-.22.26-.44.5-.46h0l.13,0a.2.2,0,0,1,.14.14.45.45,0,0,1,0,.2,1,1,0,0,1-.1.27h0a.49.49,0,0,0,0,.12.18.18,0,0,0,0,.1l.18-.2a.44.44,0,0,0,.1-.61.46.46,0,0,0-.14-.17.37.37,0,0,0-.25,0,.88.88,0,0,0-.27.1.84.84,0,0,0-.32.3v0a4.68,4.68,0,0,0-.18.48,1.1,1.1,0,0,0,0,.18,0,0,0,0,0,0,.05s0,0,0,0h0"/><path class="cls-1" d="M10.17,21.06c0-.15.14-.38.21-.58a3.2,3.2,0,0,0,.15-.61.62.62,0,0,0-.08-.46.18.18,0,0,1-.07.05h0l0,0a.08.08,0,0,1,0-.07v0a.49.49,0,0,0-.18-.42l0,1.33Z"/><path class="cls-1" d="M10.06,21.07l0-.81V18.93a.53.53,0,0,0-.18.4.15.15,0,0,1,0,.07h0s0,0,0,0h0a0,0,0,0,1,0,0l0,0a1.49,1.49,0,0,0,0,1c0,.13.2.46.25.63"/><path class="cls-1" d="M10,21.19s0,0,0-.07a2.38,2.38,0,0,0-.15-.5l0-.09a.82.82,0,0,0-.59-.41H9.07l-.12,0H9a.29.29,0,0,0-.15.12.73.73,0,0,0-.09.22.49.49,0,0,0,0,.24.27.27,0,0,0,.1.16h0a1.45,1.45,0,0,1,.17.18.22.22,0,0,1,0,.08.21.21,0,0,0,0-.27A1.08,1.08,0,0,1,9,20.67a.53.53,0,0,1,0-.22.25.25,0,0,1,.13-.17l.07,0a.11.11,0,0,1,.08,0,.61.61,0,0,1,.36.23,1.42,1.42,0,0,1,.27.48,1,1,0,0,1,0,.23c0,.06.09.08.08,0"/><path class="cls-13" d="M9.79,21.24h.09a.84.84,0,0,0,0-.27,1.28,1.28,0,0,0-.26-.47.57.57,0,0,0-.34-.22s-.05,0-.07,0l-.06,0a.19.19,0,0,0-.11.15.47.47,0,0,0,0,.2,1.34,1.34,0,0,0,.07.18.23.23,0,0,1,0,.31s-.06,0,0,.05a.09.09,0,0,0,.07,0c.07,0,.13-.09.07-.27a.34.34,0,0,1,0-.2.11.11,0,0,1,.05-.09.12.12,0,0,1,.1,0,.49.49,0,0,1,.16,0,.77.77,0,0,1,.28.43.32.32,0,0,1,0,.09s0,0,0,.07"/></g></g></svg>