<svg xmlns="http://www.w3.org/2000/svg" xmlns:xlink="http://www.w3.org/1999/xlink" width="217" height="47" viewBox="0 0 217 47"><defs><style>.a{fill:url(#a);}.b{fill:#007136;}.c{isolation:isolate;}</style><linearGradient id="a" y1="83.328" x2="1" y2="83.328" gradientUnits="objectBoundingBox"><stop offset="0" stop-color="#e97b26" stop-opacity="0.988"/><stop offset="1" stop-color="#009861"/></linearGradient></defs><g transform="translate(-414.678 -1551.789)"><path class="a" d="M484.823,1588.479H487.1v4.736h-1.4V1589.6h-.859v-1.122Zm9.253.583a2.6,2.6,0,0,1,.554,1.778,2.665,2.665,0,0,1-.554,1.792,2.308,2.308,0,0,1-3.162,0,2.665,2.665,0,0,1-.554-1.792,2.6,2.6,0,0,1,.554-1.778,2.018,2.018,0,0,1,1.589-.627A1.979,1.979,0,0,1,494.076,1589.062Zm-2.113.7a2.6,2.6,0,0,0-.161,1.064,2.734,2.734,0,0,0,.161,1.078.548.548,0,0,0,.539.32.53.53,0,0,0,.524-.32,2.688,2.688,0,0,0,.16-1.078,2.555,2.555,0,0,0-.16-1.064.551.551,0,0,0-.524-.321A.58.58,0,0,0,491.964,1589.762Zm9.194-.7a2.6,2.6,0,0,1,.554,1.778,2.665,2.665,0,0,1-.554,1.792,2.308,2.308,0,0,1-3.162,0,2.665,2.665,0,0,1-.553-1.792,2.6,2.6,0,0,1,.553-1.778,2.308,2.308,0,0,1,3.162,0Zm-2.127.7a2.6,2.6,0,0,0-.16,1.064,2.739,2.739,0,0,0,.16,1.078.55.55,0,0,0,.539.32.53.53,0,0,0,.524-.32,2.688,2.688,0,0,0,.16-1.078,2.555,2.555,0,0,0-.16-1.064.551.551,0,0,0-.524-.321A.615.615,0,0,0,499.031,1589.762Zm13.8-1.283-1.7,3.235v1.5h-1.4v-1.471l-1.734-3.264h1.4l1.035,1.924,1.006-1.924Zm2.7,0h3.862v1.078h-2.463v.743h2.23v1.078h-2.23v.743h2.536v1.078h-3.934Zm10.419,4.721-.277-.757h-1.909l-.277.757h-1.443l2.011-4.736h1.443l1.952,4.736Zm-1.792-1.778H525.3l-.569-1.545Zm8.757,1.778-.627-1.282h-.743v1.282h-1.4v-4.736h2.2a2.221,2.221,0,0,1,1.471.437,1.518,1.518,0,0,1,.524,1.239,1.969,1.969,0,0,1-.2.9,1.479,1.479,0,0,1-.6.6l.962,1.545H532.91v.014Zm-1.369-2.345h.8a.665.665,0,0,0,.495-.175.749.749,0,0,0,0-.962.659.659,0,0,0-.495-.16h-.8Zm8.408-1.225a2.533,2.533,0,0,0-.743-.16.581.581,0,0,0-.292.073.222.222,0,0,0-.1.2.328.328,0,0,0,.2.292,3.7,3.7,0,0,0,.641.233,4.3,4.3,0,0,1,.816.292,1.657,1.657,0,0,1,.569.437,1.207,1.207,0,0,1,.233.787,1.29,1.29,0,0,1-.262.831,1.558,1.558,0,0,1-.7.51,2.661,2.661,0,0,1-.991.175,4.01,4.01,0,0,1-1.225-.2,3.044,3.044,0,0,1-1.049-.569l.524-1.064a3.15,3.15,0,0,0,.875.524,2.379,2.379,0,0,0,.889.218.67.67,0,0,0,.364-.088.285.285,0,0,0,.131-.247.344.344,0,0,0-.2-.306,3.119,3.119,0,0,0-.64-.219,6.771,6.771,0,0,1-.816-.262,1.311,1.311,0,0,1-.554-.422,1.151,1.151,0,0,1-.234-.758,1.371,1.371,0,0,1,.248-.8,1.472,1.472,0,0,1,.685-.524,2.793,2.793,0,0,1,1.034-.175,3.82,3.82,0,0,1,1.065.145,3.31,3.31,0,0,1,.917.408l-.524,1.078A3.835,3.835,0,0,0,539.949,1589.63Zm11.585-.918a2.309,2.309,0,0,1,.917.875,2.4,2.4,0,0,1,.336,1.253,2.493,2.493,0,0,1-.336,1.268,2.348,2.348,0,0,1-.917.889,2.907,2.907,0,0,1-2.653,0,2.348,2.348,0,0,1-.917-.889,2.493,2.493,0,0,1-.336-1.268,2.437,2.437,0,0,1,.336-1.253,2.413,2.413,0,0,1,.917-.875,2.906,2.906,0,0,1,2.653,0Zm-1.865,1.006a1.189,1.189,0,0,0-.423.466,1.364,1.364,0,0,0-.16.656,1.447,1.447,0,0,0,.16.655,1.183,1.183,0,0,0,.423.467,1.035,1.035,0,0,0,1.151,0,1.259,1.259,0,0,0,.408-.467,1.354,1.354,0,0,0,.146-.655,1.44,1.44,0,0,0-.146-.656,1.265,1.265,0,0,0-.408-.466,1.009,1.009,0,0,0-.569-.175A1.3,1.3,0,0,0,549.668,1589.718Zm6-1.239h3.672v1.078H557.07v.947h2.1v1.078h-2.1v1.632h-1.4v-4.736Zm13.755,4.721-.277-.757h-1.908l-.277.757h-1.443l2.01-4.736h1.443l1.953,4.736Zm-1.792-1.778h1.151l-.568-1.545Zm8.744-1.69a1.214,1.214,0,0,0-.6-.175,1.038,1.038,0,0,0-.569.16,1.12,1.12,0,0,0-.409.452,1.487,1.487,0,0,0,0,1.283,1.224,1.224,0,0,0,.409.452.988.988,0,0,0,.569.16,1.317,1.317,0,0,0,.582-.145,1.878,1.878,0,0,0,.554-.408l.816.86a3.112,3.112,0,0,1-.933.67,2.643,2.643,0,0,1-1.078.247,2.536,2.536,0,0,1-1.283-.32,2.274,2.274,0,0,1-.889-.889,2.649,2.649,0,0,1-.32-1.268,2.366,2.366,0,0,1,1.253-2.112,2.592,2.592,0,0,1,1.3-.321,2.544,2.544,0,0,1,1.064.234,2.615,2.615,0,0,1,.889.612l-.816.962A1.977,1.977,0,0,0,576.378,1589.732Zm4.109-1.253h1.4v1.88h1.676v-1.88h1.4v4.736h-1.4v-1.763h-1.676v1.763h-1.4Zm7.636,0h1.4v4.736h-1.4Zm4.546,0h3.862v1.078h-2.462v.743H596.3v1.078h-2.229v.743H596.6v1.078h-3.934Zm6.529,0h1.5l1.078,3.279,1.078-3.279H604.3l-1.822,4.736h-1.457Zm7.811,0h3.861v1.078h-2.462v.743h2.229v1.078h-2.229v.743h2.536v1.078h-3.934Zm6.965,0h1.5l1.268,2.623,1.268-2.623h1.5v4.736h-1.238V1590.4l-1.078,2.345h-.918L615.2,1590.4v2.812h-1.238l.015-4.736Zm8.685,0h3.862v1.078h-2.462v.743h2.229v1.078h-2.229v.743h2.535v1.078h-3.934Zm10.157,0H634.1v4.736h-1.2l-2.011-2.637v2.637H629.61v-4.736H630.8l2.011,2.638v-2.638Zm4.066,0h4.152v1.122h-1.369v3.613H638.25V1589.6h-1.369v-1.122Z" transform="translate(-9.355 -4.654)"/><path class="b" d="M450.758,1567.353c-2.1.015-3.92-.015-6.033-.015v10.4h.015l5.741-9.955Zm-6.033,10.381c-1.617,0-4.343.015-6.062,0l.029,10.484Zm-6.062,10.469h-5.392l-.582.015.015,10.543c.831-1.439,1.326-2.32,1.909-3.289Zm30.528,10.572-16.32.015H414.678l11.92-20.806,11.774-20.512,3.293-5.682h.087l14.47,25.005,12.75,21.657Z"/><g class="c" transform="translate(468.412 1557.976)"><path class="b" d="M481.294,1563.241c0-2.809-.253-3.113-1.746-3.239l-.633-.051c-.151-.1-.1-.557.051-.633,1.468.051,2.328.076,3.392.076,1.012,0,1.873-.025,2.885-.076.151.076.2.531.05.633l-.38.051c-1.493.2-1.544.557-1.544,3.239v9.39a14.082,14.082,0,0,1-.582,4.91,5.5,5.5,0,0,1-4.987,3.644c-.3,0-1.088-.025-1.088-.531,0-.43.38-1.164.911-1.164a3.143,3.143,0,0,1,.936.151,3.9,3.9,0,0,0,1.063.177,1.081,1.081,0,0,0,1.013-.658c.582-1.19.658-4.987.658-6.353Z" transform="translate(-476.713 -1558.989)"/><path class="b" d="M498.114,1570.176c-.177-.556-.279-.633-1.038-.633h-3.822c-.633,0-.785.076-.962.608l-.885,2.657a9.681,9.681,0,0,0-.557,2.1c0,.3.126.455.734.506l.835.075a.408.408,0,0,1-.05.634c-.658-.051-1.443-.051-2.633-.076-.835,0-1.746.05-2.429.076a.5.5,0,0,1-.051-.634l.835-.075a1.683,1.683,0,0,0,1.519-1.24c.456-1.165,1.164-2.81,2.228-5.644l2.582-6.833a3.634,3.634,0,0,0,.43-1.8,2.837,2.837,0,0,0,1.316-.962.358.358,0,0,1,.379.228c.33,1.114.734,2.278,1.114,3.392l3.468,10.175c.734,2.177,1.063,2.557,2.151,2.683l.683.075a.5.5,0,0,1,0,.634c-1.038-.051-1.923-.076-3.062-.076-1.215,0-2.177.05-2.911.076a.425.425,0,0,1-.05-.634l.734-.075c.531-.051.886-.2.886-.456a5.2,5.2,0,0,0-.33-1.341Zm-5.012-2.253c-.2.583-.177.608.531.608h3.113c.734,0,.785-.1.557-.785l-1.367-4.126a16.777,16.777,0,0,0-.582-1.594H495.3a15.594,15.594,0,0,0-.608,1.494Z" transform="translate(-478.119 -1558.938)"/><path class="b" d="M523.646,1570.176c-.177-.556-.279-.633-1.038-.633h-3.822c-.633,0-.785.076-.961.608l-.886,2.657a9.654,9.654,0,0,0-.556,2.1c0,.3.126.455.734.506l.835.075a.407.407,0,0,1-.051.634c-.658-.051-1.443-.051-2.632-.076-.835,0-1.746.05-2.43.076a.5.5,0,0,1-.05-.634l.835-.075a1.684,1.684,0,0,0,1.519-1.24c.455-1.165,1.164-2.81,2.227-5.644l2.582-6.833a3.624,3.624,0,0,0,.43-1.8,2.837,2.837,0,0,0,1.316-.962.359.359,0,0,1,.38.228c.329,1.114.734,2.278,1.114,3.392l3.467,10.175c.734,2.177,1.063,2.557,2.151,2.683l.684.075a.5.5,0,0,1,0,.634c-1.038-.051-1.924-.076-3.063-.076-1.215,0-2.177.05-2.91.076a.426.426,0,0,1-.051-.634l.734-.075c.532-.051.886-.2.886-.456a5.189,5.189,0,0,0-.329-1.341Zm-5.012-2.253c-.2.583-.177.608.532.608h3.113c.734,0,.784-.1.557-.785l-1.367-4.126a16.524,16.524,0,0,0-.582-1.594h-.05a15.369,15.369,0,0,0-.607,1.494Z" transform="translate(-481.555 -1558.938)"/><path class="b" d="M547.684,1570.543c0-1.721-.759-2.607-2.354-2.607a2.727,2.727,0,0,0-2.1.885c-.3.38-.38.633-.38,1.519v3.872c0,1.823.051,2.076.962,2.2l.531.075a.444.444,0,0,1-.051.634c-.759-.051-1.493-.076-2.379-.076-.911,0-1.594.025-2.3.076a.444.444,0,0,1-.051-.634l.456-.075c.936-.152.962-.38.962-2.2v-3.669c0-1.7-.759-2.607-2.328-2.607a2.712,2.712,0,0,0-2.126.911,1.97,1.97,0,0,0-.38,1.443v3.923c0,1.823.051,2.05.961,2.2l.456.075a.443.443,0,0,1-.051.634c-.683-.051-1.417-.076-2.3-.076-.911,0-1.67.025-2.455.076a.444.444,0,0,1-.05-.634l.607-.075c.936-.126.962-.38.962-2.2v-4.429c0-.987,0-1.113-.684-1.569l-.228-.151a.347.347,0,0,1,.025-.456,13.767,13.767,0,0,0,2.531-1.24.3.3,0,0,1,.279.177c-.051.582-.051.961-.051,1.19a.265.265,0,0,0,.279.278,6.086,6.086,0,0,1,3.366-1.29,2.888,2.888,0,0,1,2.683,1.493.794.794,0,0,0,.634-.2,6.336,6.336,0,0,1,3.442-1.29,2.861,2.861,0,0,1,3.012,3.138v4.353c0,1.823.051,2.076.962,2.2l.607.075a.443.443,0,0,1-.05.634c-.835-.051-1.569-.076-2.455-.076-.911,0-1.594.025-2.3.076a.444.444,0,0,1-.051-.634l.456-.075c.936-.152.961-.38.961-2.2Z" transform="translate(-484.232 -1559.938)"/><path class="b" d="M558.109,1570.623c-.658,0-.683.051-.683.684,0,2.556,1.493,4.733,4.2,4.733a2.73,2.73,0,0,0,2.329-1.24.334.334,0,0,1,.455.3,4.423,4.423,0,0,1-3.973,2.353,4.537,4.537,0,0,1-3.67-1.67,5.374,5.374,0,0,1-1.063-3.29c0-3.113,2.05-5.72,5.087-5.72a3.316,3.316,0,0,1,3.594,3.012,1.571,1.571,0,0,1-.1.658c-.076.152-.43.177-1.493.177Zm1.569-.759c1.874,0,2.43-.1,2.633-.254.076-.05.151-.151.151-.48,0-.709-.48-1.6-1.948-1.6a2.971,2.971,0,0,0-2.81,2.2c0,.05,0,.126.177.126Z" transform="translate(-487.342 -1559.993)"/><path class="b" d="M568.888,1569.783c0-.987,0-1.113-.684-1.569l-.228-.151a.347.347,0,0,1,.025-.456,19.536,19.536,0,0,0,2.557-1.24c.126.026.2.076.2.177v1.468c0,.127.025.2.076.229a5.109,5.109,0,0,1,2.784-1.519,1.049,1.049,0,0,1,1.139,1.013,1.123,1.123,0,0,1-1.089,1.164.97.97,0,0,1-.557-.177,2.081,2.081,0,0,0-1.114-.405,1.123,1.123,0,0,0-.911.506,3.857,3.857,0,0,0-.329,1.949v3.442c0,1.823.05,2.126,1.013,2.2l.911.075a.444.444,0,0,1-.051.634c-1.189-.051-1.924-.076-2.809-.076-.911,0-1.67.025-2.329.076a.444.444,0,0,1-.05-.634l.48-.075c.936-.152.962-.38.962-2.2Z" transform="translate(-488.907 -1559.938)"/><path class="b" d="M578.589,1568.988c0-.987,0-1.113-.684-1.569l-.228-.151a.347.347,0,0,1,.025-.456,17.364,17.364,0,0,0,2.608-1.24.234.234,0,0,1,.253.152c-.05.885-.1,2.1-.1,3.138v4.556c0,1.823.051,2.076.961,2.2l.532.075a.444.444,0,0,1-.051.634c-.759-.051-1.493-.076-2.379-.076-.911,0-1.67.025-2.379.076a.443.443,0,0,1-.05-.634l.531-.075c.936-.126.961-.38.961-2.2Zm2.1-7.213a1.316,1.316,0,0,1-2.632.051,1.315,1.315,0,0,1,1.367-1.366A1.265,1.265,0,0,1,580.689,1561.775Z" transform="translate(-490.206 -1559.143)"/><path class="b" d="M592.918,1567.206a1.436,1.436,0,0,1,.38,1.013c0,.455-.254.937-.557.937a.443.443,0,0,1-.354-.177,3.456,3.456,0,0,0-2.531-1.341c-1.772,0-3.493,1.393-3.493,4.075a4.16,4.16,0,0,0,4.075,4.328,3.089,3.089,0,0,0,2.809-1.519.4.4,0,0,1,.456.354,4.612,4.612,0,0,1-4.227,2.582,4.907,4.907,0,0,1-3.468-1.29,5.04,5.04,0,0,1-1.468-3.746c0-2.733,1.923-5.644,6.125-5.644A6.313,6.313,0,0,1,592.918,1567.206Z" transform="translate(-491.223 -1559.993)"/><path class="b" d="M601.322,1571.863c.38-.126.43-.354.43-.734l.026-1.164c.025-.936-.279-2.2-1.848-2.2-.709,0-1.57.355-1.62,1.139-.025.4-.05.709-.253.861a2.725,2.725,0,0,1-1.443.48.32.32,0,0,1-.355-.354c0-1.316,2.86-3.113,4.708-3.113,1.823,0,2.708,1.063,2.632,2.962l-.151,4.4c-.051,1.164.177,2.2,1.164,2.2a1.447,1.447,0,0,0,.633-.152c.126-.076.254-.177.329-.177.1,0,.177.152.177.33a2.654,2.654,0,0,1-2.125,1.113,2.02,2.02,0,0,1-1.645-.784c-.1-.152-.254-.355-.405-.355a3.875,3.875,0,0,0-.987.506,3.744,3.744,0,0,1-1.823.633,2.621,2.621,0,0,1-1.772-.582,2.37,2.37,0,0,1-.784-1.772c0-.987.48-1.57,2.1-2.151Zm-1.569,4.454a2.859,2.859,0,0,0,1.544-.633c.3-.3.3-.658.329-1.189l.051-1.494c0-.279-.1-.329-.254-.329a4.8,4.8,0,0,0-1.038.253c-1.493.506-2.228.886-2.228,1.874A1.526,1.526,0,0,0,599.753,1576.318Z" transform="translate(-492.793 -1559.993)"/><path class="b" d="M614.052,1567.231a5.9,5.9,0,0,1,.405,2.05.44.44,0,0,1-.607.076,2.469,2.469,0,0,0-2.228-1.848,1.5,1.5,0,0,0-1.62,1.544c0,1.038,1.064,1.594,1.949,2.1,1.341.76,2.582,1.62,2.582,3.417,0,1.924-1.772,2.885-3.644,2.885a4.209,4.209,0,0,1-2.708-.759,7.516,7.516,0,0,1-.3-2.557.429.429,0,0,1,.582-.025c.43,1.392,1.24,2.607,2.683,2.607a1.559,1.559,0,0,0,1.7-1.619c0-1.165-1.013-1.8-1.949-2.329-1.468-.835-2.505-1.721-2.505-3.113,0-1.848,1.518-2.885,3.442-2.885A4.477,4.477,0,0,1,614.052,1567.231Z" transform="translate(-494.362 -1559.993)"/></g><g class="c" transform="translate(481.011 1594.374)"><path class="b" d="M494.716,1604.988l-.352-.84h-1.943l-.351.84h-.79l1.744-3.977h.79l1.721,3.977Zm-2.022-1.494h1.4l-.693-1.67Z" transform="translate(-491.279 -1600.642)"/><path class="b" d="M498.362,1601.011h.869l1.318,2.563,1.307-2.563h.869v3.977h-.7v-2.852l-1.238,2.443H500.3l-1.244-2.443v2.852h-.693Z" transform="translate(-492.232 -1600.642)"/><path class="b" d="M506.817,1602.483a1.7,1.7,0,0,1,.366,1.165c0,.1,0,.172-.006.222h-2.243a.848.848,0,0,0,.869.693,1.151,1.151,0,0,0,.446-.088,1.089,1.089,0,0,0,.372-.253l.4.415a1.54,1.54,0,0,1-.554.387,1.867,1.867,0,0,1-.724.136,1.692,1.692,0,0,1-.821-.193,1.355,1.355,0,0,1-.548-.543,1.766,1.766,0,0,1,0-1.611,1.389,1.389,0,0,1,.548-.548,1.621,1.621,0,0,1,.8-.2A1.386,1.386,0,0,1,506.817,1602.483Zm-.31.892a.737.737,0,0,0-.222-.534.862.862,0,0,0-1.1,0,.86.86,0,0,0-.27.536Z" transform="translate(-493.015 -1600.785)"/><path class="b" d="M513.18,1602.377a1.2,1.2,0,0,1,.3.855v1.9h-.744v-1.682a.7.7,0,0,0-.179-.508.646.646,0,0,0-.486-.185.731.731,0,0,0-.56.256.92.92,0,0,0-.207.619v1.5h-.744v-1.682a.7.7,0,0,0-.177-.508.634.634,0,0,0-.483-.185.738.738,0,0,0-.565.256.92.92,0,0,0-.207.619v1.5h-.739v-3.04h.739v.563a1.262,1.262,0,0,1,1.735-.4.991.991,0,0,1,.377.537,1.124,1.124,0,0,1,1.131-.727A1.057,1.057,0,0,1,513.18,1602.377Z" transform="translate(-493.581 -1600.784)"/><path class="b" d="M517.765,1602.085a1.322,1.322,0,0,1,.505.548,1.77,1.77,0,0,1,.179.813,1.736,1.736,0,0,1-.177.8,1.3,1.3,0,0,1-.5.54,1.438,1.438,0,0,1-.75.193,1.3,1.3,0,0,1-.6-.133,1.128,1.128,0,0,1-.432-.389v.494h-.739v-4.215h.739v1.676a1.078,1.078,0,0,1,.423-.389,1.287,1.287,0,0,1,.6-.134A1.436,1.436,0,0,1,517.765,1602.085Zm-.3,2a.936.936,0,0,0,.238-.662.926.926,0,0,0-.238-.659.872.872,0,0,0-1.233,0,1.04,1.04,0,0,0,0,1.324.809.809,0,0,0,.62.255A.8.8,0,0,0,517.461,1604.084Z" transform="translate(-494.505 -1600.605)"/><path class="b" d="M522.006,1602.483a1.7,1.7,0,0,1,.366,1.165c0,.1,0,.172-.005.222h-2.244a.847.847,0,0,0,.869.693,1.156,1.156,0,0,0,.447-.088,1.1,1.1,0,0,0,.372-.253l.4.415a1.533,1.533,0,0,1-.554.387,1.866,1.866,0,0,1-.724.136,1.686,1.686,0,0,1-.82-.193,1.352,1.352,0,0,1-.549-.543,1.762,1.762,0,0,1,0-1.611,1.383,1.383,0,0,1,.548-.548,1.619,1.619,0,0,1,.8-.2A1.383,1.383,0,0,1,522.006,1602.483Zm-.31.892a.737.737,0,0,0-.222-.534.777.777,0,0,0-.557-.2.785.785,0,0,0-.543.2.868.868,0,0,0-.27.536Z" transform="translate(-495.059 -1600.785)"/><path class="b" d="M524.73,1602.224a1.221,1.221,0,0,1,.617-.162v.716a1,1,0,0,0-.753.218.844.844,0,0,0-.281.668v1.465h-.738v-3.04h.738v.586A1.094,1.094,0,0,1,524.73,1602.224Z" transform="translate(-495.625 -1600.784)"/><path class="b" d="M529.947,1602.261a1.4,1.4,0,0,1,.563.543,1.583,1.583,0,0,1,.2.8,1.611,1.611,0,0,1-.2.813,1.4,1.4,0,0,1-.563.545,1.737,1.737,0,0,1-.833.193,1.763,1.763,0,0,1-.84-.193,1.389,1.389,0,0,1-.565-.545,1.6,1.6,0,0,1-.2-.813,1.574,1.574,0,0,1,.2-.8,1.394,1.394,0,0,1,.565-.543,1.772,1.772,0,0,1,.84-.193A1.745,1.745,0,0,1,529.947,1602.261Zm-1.457.693a1.044,1.044,0,0,0,0,1.329.816.816,0,0,0,.625.256.8.8,0,0,0,.614-.256,1.044,1.044,0,0,0,0-1.329.8.8,0,0,0-.614-.255A.815.815,0,0,0,528.489,1602.954Z" transform="translate(-496.154 -1600.785)"/><path class="b" d="M532.856,1601.429a.366.366,0,0,0-.111.29v.312h.762v.539h-.762v2.375h-.738v-2.375h-.4v-.539h.4v-.29a1.062,1.062,0,0,1,.147-.571.944.944,0,0,1,.4-.355,1.216,1.216,0,0,1,.537-.119,1.28,1.28,0,0,1,.556.131l-.131.6a1.064,1.064,0,0,0-.375-.092A.414.414,0,0,0,532.856,1601.429Z" transform="translate(-496.706 -1600.6)"/><path class="b" d="M537.522,1604.684a1.261,1.261,0,0,1-.931.338,1.521,1.521,0,0,1-1.227-.6l.357-.568a1.582,1.582,0,0,0,.423.326.921.921,0,0,0,.423.117.5.5,0,0,0,.389-.151.609.609,0,0,0,.139-.428v-2.034h-1.369v-.677h2.136v2.727A1.271,1.271,0,0,1,537.522,1604.684Z" transform="translate(-497.211 -1600.642)"/><path class="b" d="M542.024,1604.988l-.352-.84h-1.943l-.352.84h-.789l1.744-3.977h.79l1.72,3.977ZM540,1603.494h1.4l-.693-1.67Z" transform="translate(-497.645 -1600.642)"/><path class="b" d="M550.419,1601.011h.789l-1.347,3.977h-.789l-.91-3.016-.925,3.016h-.779l-1.341-3.977h.818l.937,3.153.932-3.153h.75l.938,3.165Z" transform="translate(-498.524 -1600.642)"/><path class="b" d="M554.451,1602.261a1.4,1.4,0,0,1,.563.543,1.582,1.582,0,0,1,.2.8,1.61,1.61,0,0,1-.2.813,1.4,1.4,0,0,1-.562.545,1.737,1.737,0,0,1-.833.193,1.761,1.761,0,0,1-.84-.193,1.4,1.4,0,0,1-.566-.545,1.611,1.611,0,0,1-.2-.813,1.583,1.583,0,0,1,.2-.8,1.4,1.4,0,0,1,.566-.543,1.769,1.769,0,0,1,.84-.193A1.745,1.745,0,0,1,554.451,1602.261Zm-1.457.693a1.044,1.044,0,0,0,0,1.329.816.816,0,0,0,.625.256.8.8,0,0,0,.614-.256,1.044,1.044,0,0,0,0-1.329.8.8,0,0,0-.614-.255A.815.815,0,0,0,552.993,1602.954Z" transform="translate(-499.451 -1600.785)"/><path class="b" d="M557.61,1602.224a1.22,1.22,0,0,1,.616-.162v.716a1,1,0,0,0-.752.218.844.844,0,0,0-.281.668v1.465h-.739v-3.04h.739v.586A1.094,1.094,0,0,1,557.61,1602.224Z" transform="translate(-500.049 -1600.784)"/><path class="b" d="M559.133,1600.736h.738v4.215h-.738Z" transform="translate(-500.41 -1600.605)"/><path class="b" d="M563.97,1600.736v4.215h-.738v-.488a1.091,1.091,0,0,1-.423.389,1.288,1.288,0,0,1-.6.134,1.446,1.446,0,0,1-.758-.2,1.329,1.329,0,0,1-.508-.55,1.758,1.758,0,0,1-.183-.816,1.734,1.734,0,0,1,.179-.8,1.313,1.313,0,0,1,.505-.543,1.44,1.44,0,0,1,.748-.193,1.3,1.3,0,0,1,.608.136,1.162,1.162,0,0,1,.432.392v-1.676Zm-.98,3.372a1.044,1.044,0,0,0,0-1.335.814.814,0,0,0-.622-.259.8.8,0,0,0-.619.259,1.032,1.032,0,0,0,0,1.335.8.8,0,0,0,.619.258A.813.813,0,0,0,562.99,1604.108Z" transform="translate(-500.629 -1600.605)"/><path class="b" d="M565.027,1602.1l.762-.006.744,2.3.721-2.3H568l.733,2.3.727-2.3h.744l-1.1,3.039h-.756l-.728-2.141-.721,2.141h-.755Z" transform="translate(-501.203 -1600.788)"/><path class="b" d="M572.162,1600.71a.442.442,0,0,1,.119.318.434.434,0,0,1-.119.312.426.426,0,0,1-.6,0,.434.434,0,0,1-.119-.312.442.442,0,0,1,.119-.318.426.426,0,0,1,.6,0Zm-.665,1.181h.738v3.039H571.5Z" transform="translate(-502.066 -1600.585)"/><path class="b" d="M576.3,1600.736v4.215h-.738v-.488a1.09,1.09,0,0,1-.423.389,1.287,1.287,0,0,1-.6.134,1.446,1.446,0,0,1-.758-.2,1.329,1.329,0,0,1-.508-.55,1.758,1.758,0,0,1-.183-.816,1.734,1.734,0,0,1,.179-.8,1.313,1.313,0,0,1,.505-.543,1.44,1.44,0,0,1,.748-.193,1.3,1.3,0,0,1,.607.136,1.156,1.156,0,0,1,.432.392v-1.676Zm-.98,3.372a1.044,1.044,0,0,0,0-1.335.814.814,0,0,0-.622-.259.8.8,0,0,0-.619.259,1.032,1.032,0,0,0,0,1.335.8.8,0,0,0,.619.258A.813.813,0,0,0,575.324,1604.108Z" transform="translate(-502.288 -1600.605)"/><path class="b" d="M580.217,1602.483a1.7,1.7,0,0,1,.366,1.165c0,.1,0,.172-.005.222h-2.244a.848.848,0,0,0,.869.693,1.155,1.155,0,0,0,.447-.088,1.1,1.1,0,0,0,.372-.253l.4.415a1.532,1.532,0,0,1-.554.387,1.866,1.866,0,0,1-.724.136,1.691,1.691,0,0,1-.821-.193,1.355,1.355,0,0,1-.548-.543,1.766,1.766,0,0,1,0-1.611,1.386,1.386,0,0,1,.549-.548,1.618,1.618,0,0,1,.8-.2A1.385,1.385,0,0,1,580.217,1602.483Zm-.31.892a.737.737,0,0,0-.221-.534.862.862,0,0,0-1.1,0,.868.868,0,0,0-.27.536Z" transform="translate(-502.892 -1600.785)"/></g></g></svg>