<svg xmlns="http://www.w3.org/2000/svg" width="62" height="62" viewBox="0 0 62 62"><defs><style>.a{fill:#312783;}.b{fill:#261f64;}</style></defs><g transform="translate(0)"><g transform="translate(0 -11.877)"><path class="a" d="M60.537,34.275,40.455,32.322,32.478,12.9a1.581,1.581,0,0,0-2.956,0L21.545,32.322,1.463,34.275a1.707,1.707,0,0,0-.914,2.948L15.7,51.181,11.267,71.813a1.628,1.628,0,0,0,2.391,1.822L31,62.837l17.341,10.8a1.628,1.628,0,0,0,2.392-1.822L46.3,51.181,61.45,37.223A1.707,1.707,0,0,0,60.537,34.275Z" transform="translate(0)"/><path class="b" d="M32.478,12.9a1.581,1.581,0,0,0-2.956,0L21.545,32.322,1.463,34.275a1.707,1.707,0,0,0-.914,2.948L15.7,51.181,11.267,71.813a1.628,1.628,0,0,0,2.391,1.822l3.871-2.41A76.266,76.266,0,0,1,36.422,22.5Z" transform="translate(0)"/></g></g></svg>