<svg xmlns="http://www.w3.org/2000/svg" width="54" height="62" viewBox="0 0 54 62"><defs><style>.a{fill:#2a4795;}.b{fill:#261f64;}.c{fill:#fff;}</style></defs><g transform="translate(-413 -1157)"><g transform="translate(413 1157)"><path class="a" d="M117.936,62.425l-27,7.611V80.943a48.621,48.621,0,0,0,25.822,42.852l1.178.63,1.178-.63a48.621,48.621,0,0,0,25.822-42.852V70.036Z" transform="translate(-90.936 -62.425)"/><path class="b" d="M283,70.036V80.943a48.622,48.622,0,0,1-25.822,42.852l-1.178.63v-62Z" transform="translate(-229 -62.425)"/><path class="c" d="M10.253,34.834a.578.578,0,0,1-.842.043L.19,26.149a.613.613,0,0,1-.024-.863l2.938-3.1a.613.613,0,0,1,.863-.024L9,26.925a.578.578,0,0,0,.842-.043l9.841-11.435a.612.612,0,0,1,.861-.064l3.239,2.788a.612.612,0,0,1,.064.861Z" transform="translate(15.001 2.863)"/></g></g></svg>