<svg xmlns="http://www.w3.org/2000/svg" width="20" height="23" viewBox="0 0 20 23"><defs><style>.a{fill:#312783;}</style></defs><path class="a" d="M59.429,3.724,50.355.069a.952.952,0,0,0-.71,0L40.571,3.724a.9.9,0,0,0-.571.83V9a15.052,15.052,0,0,0,9.65,13.935.952.952,0,0,0,.7,0A15.052,15.052,0,0,0,60,9V4.554A.9.9,0,0,0,59.429,3.724ZM58.148,9A13.242,13.242,0,0,1,50,21.126,13.244,13.244,0,0,1,41.852,9V5.154L50,1.871l8.148,3.283Zm-9.172,3.028,3.98-3.862a.946.946,0,0,1,1.309,0,.88.88,0,0,1,0,1.271l-4.634,4.5a.946.946,0,0,1-1.309,0l-2.588-2.511a.88.88,0,0,1,0-1.271.946.946,0,0,1,1.309,0Z" transform="translate(-40 0)"/></svg>