<svg xmlns="http://www.w3.org/2000/svg" width="22" height="22" viewBox="0 0 22 22"><defs><style>.a{fill:#1877f2;}.b{fill:#fff;}</style></defs><path class="a" d="M22,11A11,11,0,1,0,9.281,21.867V14.18H6.488V11H9.281V8.577c0-2.757,1.642-4.28,4.155-4.28a16.915,16.915,0,0,1,2.462.215V7.219H14.511a1.59,1.59,0,0,0-1.793,1.718V11H15.77l-.488,3.18H12.719v7.687A11,11,0,0,0,22,11Z"/><path class="b" d="M310.764,209.849l.486-3.169h-3.04v-2.056A1.584,1.584,0,0,1,310,202.912h1.382v-2.7a16.857,16.857,0,0,0-2.454-.214c-2.5,0-4.141,1.518-4.141,4.265v2.415H302v3.169h2.784v7.661a11.08,11.08,0,0,0,3.426,0v-7.661Z" transform="translate(-295.495 -195.643)"/></svg>