<svg xmlns="http://www.w3.org/2000/svg" width="22" height="22" viewBox="0 0 22 22"><defs><style>.a{fill:#0a66c2;}</style></defs><g transform="translate(0.001 0)"><path class="a" d="M18.744,18.745h-3.26v-5.1c0-1.217-.022-2.784-1.7-2.784-1.7,0-1.958,1.326-1.958,2.7v5.193H8.572V8.247H11.7V9.681h.044a3.429,3.429,0,0,1,3.088-1.7c3.3,0,3.913,2.173,3.913,5ZM4.894,6.812a1.892,1.892,0,1,1,1.338-.554,1.892,1.892,0,0,1-1.338.554m1.63,11.933H3.26V8.247H6.524ZM20.369,0H1.622A1.606,1.606,0,0,0,0,1.587V20.412A1.607,1.607,0,0,0,1.622,22H20.369A1.61,1.61,0,0,0,22,20.412V1.585A1.609,1.609,0,0,0,20.369,0" transform="translate(0 0)"/></g></svg>