<svg xmlns="http://www.w3.org/2000/svg" xmlns:xlink="http://www.w3.org/1999/xlink" width="400" height="207" viewBox="0 0 400 207"><defs><style>.a{fill:none;}.b{fill:#00a7cc;}.c{fill:#464545;}.d{fill:url(#a);}.e{fill:url(#b);}.f{fill:#8c8b8b;}</style><linearGradient id="a" x1="0.203" y1="0.5" x2="0.844" y2="0.5" gradientUnits="objectBoundingBox"><stop offset="0" stop-color="#00a7d0"/><stop offset="1" stop-color="#004885"/></linearGradient><linearGradient id="b" x1="0.491" y1="0.5" x2="0.074" y2="0.5" gradientUnits="objectBoundingBox"><stop offset="0" stop-color="#46b7d1"/><stop offset="1" stop-color="#1e8e9e"/></linearGradient></defs><g transform="translate(-18183 -613)"><rect class="a" width="400" height="207" transform="translate(18183 613)"/><g transform="translate(18124.729 598.325)"><g transform="translate(369.653 99.845)"><path class="b" d="M325.247,91.876a21.932,21.932,0,0,1-5.442-10.495,21.929,21.929,0,0,1-5.439,10.495,22.208,22.208,0,0,1-10.524,5.471,22.157,22.157,0,0,1,10.524,5.47,21.929,21.929,0,0,1,5.439,10.495,21.932,21.932,0,0,1,5.442-10.495,22.145,22.145,0,0,1,10.524-5.47A22.2,22.2,0,0,1,325.247,91.876Z" transform="translate(-303.842 -81.381)"/><g transform="translate(20.683 27.037)"><path class="b" d="M330.8,107.235a11.781,11.781,0,0,1-2.919-5.633,10.525,10.525,0,0,1-8.569,8.568,10.53,10.53,0,0,1,8.569,8.568,11.774,11.774,0,0,1,2.919-5.632,11.893,11.893,0,0,1,5.649-2.936A11.9,11.9,0,0,1,330.8,107.235Z" transform="translate(-319.311 -101.602)"/></g><g transform="translate(10.984 42.703)"><path class="b" d="M323.544,118.952a11.765,11.765,0,0,1-2.92-5.633,11.77,11.77,0,0,1-2.919,5.633,11.9,11.9,0,0,1-5.648,2.935,11.9,11.9,0,0,1,5.648,2.935,11.781,11.781,0,0,1,2.919,5.633,11.776,11.776,0,0,1,2.92-5.633,11.9,11.9,0,0,1,5.648-2.935A11.9,11.9,0,0,1,323.544,118.952Z" transform="translate(-312.057 -113.319)"/></g></g><g transform="translate(108.599 26.604)"><g transform="translate(0 116.521)"><path class="b" d="M122.6,126.381v-2.867a4.3,4.3,0,1,0-8.6,0v22.351a4.3,4.3,0,0,0,8.6,0v-8.687h-2.952a1.316,1.316,0,0,1-1.349-1.266v-2.7a1.331,1.331,0,0,1,1.349-1.35h7a1.332,1.332,0,0,1,1.349,1.35v12.651a9.7,9.7,0,0,1-19.4,0V123.514a9.7,9.7,0,1,1,19.4,0v2.867a1.332,1.332,0,0,1-1.349,1.349h-2.7A1.332,1.332,0,0,1,122.6,126.381Z" transform="translate(-108.599 -113.728)"/><path class="b" d="M157.483,151.453v2.7a1.387,1.387,0,0,1-1.349,1.349h-9.953a2.717,2.717,0,0,1-2.7-2.7V115.1a1.334,1.334,0,0,1,1.35-1.35h2.7a1.389,1.389,0,0,1,1.35,1.35v35h7.254A1.332,1.332,0,0,1,157.483,151.453Z" transform="translate(-96.841 -113.75)"/><path class="b" d="M179.095,154.151a1.331,1.331,0,0,1-1.349,1.349h-2.7a1.332,1.332,0,0,1-1.349-1.349V115.1a1.334,1.334,0,0,1,1.349-1.35h2.7a1.388,1.388,0,0,1,1.349,1.35Z" transform="translate(-86.656 -113.75)"/><path class="b" d="M211.479,126.318V123.45a4.3,4.3,0,0,0-8.6,0c0,1.1,0,1.1.253,1.435L214.852,140.4c2.024,2.7,2.024,2.7,2.024,5.4a9.7,9.7,0,1,1-19.4,0v-2.867a1.331,1.331,0,0,1,1.349-1.35h2.7a1.332,1.332,0,0,1,1.349,1.35V145.8a4.3,4.3,0,1,0,8.6,0c0-1.1,0-1.1-.253-1.433L199.5,128.848c-2.024-2.7-2.024-2.7-2.024-5.4a9.7,9.7,0,1,1,19.4,0v2.868a1.333,1.333,0,0,1-1.349,1.349h-2.7A1.333,1.333,0,0,1,211.479,126.318Z" transform="translate(-78.64 -113.75)"/><path class="b" d="M244.894,115.1v2.7a1.332,1.332,0,0,1-1.348,1.349h-3.8v35A1.387,1.387,0,0,1,238.4,155.5h-2.7a1.386,1.386,0,0,1-1.349-1.349v-35h-3.795a1.332,1.332,0,0,1-1.35-1.349v-2.7a1.333,1.333,0,0,1,1.35-1.35h12.988A1.333,1.333,0,0,1,244.894,115.1Z" transform="translate(-67.945 -113.75)"/><path class="b" d="M266.082,119.149v12.736h7.338a1.333,1.333,0,0,1,1.35,1.35v2.7a1.332,1.332,0,0,1-1.35,1.349h-7.338V150.1h7.338a1.333,1.333,0,0,1,1.35,1.35v2.7a1.332,1.332,0,0,1-1.35,1.349H263.384a2.716,2.716,0,0,1-2.7-2.7V116.451a2.666,2.666,0,0,1,2.7-2.7H273.42a1.334,1.334,0,0,1,1.35,1.35v2.7a1.333,1.333,0,0,1-1.35,1.349Z" transform="translate(-57.335 -113.75)"/><path class="b" d="M311.076,123.45v30.7a1.386,1.386,0,0,1-1.349,1.349h-2.7a1.386,1.386,0,0,1-1.35-1.349v-30.7a4.344,4.344,0,0,0-8.687,0v30.7a1.387,1.387,0,0,1-1.349,1.349h-2.7a1.387,1.387,0,0,1-1.349-1.349v-30.7a9.741,9.741,0,0,1,19.483,0Z" transform="translate(-46.917 -113.75)"/></g><g transform="translate(0.587 167.764)"><path class="c" d="M109.038,167.339V152.091h.723v14.547h5.113v.7Z" transform="translate(-109.038 -152.07)"/><path class="c" d="M119.427,167.339V152.091h.7v15.248Z" transform="translate(-105.536 -152.07)"/><path class="c" d="M126.778,167.339h-.7V152.091h.611l3.914,13.6,3.891-13.6h.634v15.248H134.4V154.986l-3.529,12.353h-.543l-3.551-12.353Z" transform="translate(-103.295 -152.07)"/><path class="c" d="M139.924,167.339h-.7V152.091h2.737a3.376,3.376,0,0,1,2.693.995,5.624,5.624,0,0,1,0,5.973,3.372,3.372,0,0,1-2.693,1h-2.036Zm0-7.986h2.036a2.756,2.756,0,0,0,2.171-.767,3.919,3.919,0,0,0,.656-2.512,3.853,3.853,0,0,0-.656-2.523,2.742,2.742,0,0,0-2.171-.757h-2.036Z" transform="translate(-98.863 -152.07)"/><path class="c" d="M150.254,167.339V152.091h.7v15.248Z" transform="translate(-95.145 -152.07)"/><path class="c" d="M157.656,152.793v6.56h4.773v.7h-4.773v6.584h4.773v.7h-5.474V152.091h5.474v.7Z" transform="translate(-92.886 -152.07)"/><path class="c" d="M174.521,166.638v.7H167.1v-.7l6.493-13.845h-6.605v-.7h7.421v.657l-6.516,13.891Z" transform="translate(-89.505 -152.07)"/><path class="c" d="M179.876,167.339h-.723l1.2-5.293v-.068l2.308-9.886h.566l3.483,15.248h-.723l-1.042-4.66h-4.026Zm3.054-13.324-1.832,7.962h3.688Z" transform="translate(-85.404 -152.07)"/><path class="c" d="M200.209,167.339h-.7V152.091h2.738a3.373,3.373,0,0,1,2.692.995,5.616,5.616,0,0,1,0,5.973,3.369,3.369,0,0,1-2.692,1h-2.036Zm0-7.986h2.036a2.758,2.758,0,0,0,2.171-.767,3.919,3.919,0,0,0,.656-2.512,3.853,3.853,0,0,0-.656-2.523,2.742,2.742,0,0,0-2.171-.757h-2.036Z" transform="translate(-78.543 -152.07)"/><path class="c" d="M215.629,160.4a3.544,3.544,0,0,1,1.019,2.692v4.23h-.725v-4.23a2.918,2.918,0,0,0-.746-2.138,2.822,2.822,0,0,0-2.1-.757h-2.036v7.125h-.7V152.075h2.737a3.353,3.353,0,0,1,2.681.983,5.934,5.934,0,0,1,.012,6.1,2.829,2.829,0,0,1-.905.7A2.729,2.729,0,0,1,215.629,160.4Zm-2.556-.928a2.646,2.646,0,0,0,2.15-.769,4,4,0,0,0,.678-2.579,3.95,3.95,0,0,0-.655-2.556,2.716,2.716,0,0,0-2.173-.769h-2.036v6.673h2.036Z" transform="translate(-74.893 -152.075)"/><path class="c" d="M224.519,167.339a4.174,4.174,0,0,1-1.12-.159,2.472,2.472,0,0,1-1.052-.61,3.262,3.262,0,0,1-.767-1.233,5.878,5.878,0,0,1-.3-2.048v-7.171a4.851,4.851,0,0,1,.792-2.986,2.95,2.95,0,0,1,2.444-1.042,2.906,2.906,0,0,1,2.443,1.042,4.7,4.7,0,0,1,.816,2.986v7.171a5.946,5.946,0,0,1-.294,2.048,3.266,3.266,0,0,1-.77,1.233,2.46,2.46,0,0,1-1.051.61A4.27,4.27,0,0,1,224.519,167.339Zm0-14.546a2.185,2.185,0,0,0-1.877.79,4.067,4.067,0,0,0-.655,2.535v7.171a4.1,4.1,0,0,0,.655,2.556,2.216,2.216,0,0,0,1.877.793,2.323,2.323,0,0,0,1.9-.793,4.109,4.109,0,0,0,.634-2.556v-7.171a4.075,4.075,0,0,0-.634-2.535A2.288,2.288,0,0,0,224.519,152.793Z" transform="translate(-71.203 -152.07)"/><path class="c" d="M233.034,152.793v6.56h4.773v.7h-4.773v7.284h-.7V152.091h5.475v.7Z" transform="translate(-67.479 -152.07)"/><path class="c" d="M243.372,152.793v6.56h4.773v.7h-4.773v6.584h4.773v.7H242.67V152.091h5.475v.7Z" transform="translate(-63.994 -152.07)"/><path class="c" d="M256.13,167.322a2.912,2.912,0,0,1-2.443-1.04,4.585,4.585,0,0,1-.814-2.987v-.338h.7v.338a5.146,5.146,0,0,0,.25,1.788,2.517,2.517,0,0,0,.622.995,1.774,1.774,0,0,0,.825.441,3.91,3.91,0,0,0,.86.1,2.267,2.267,0,0,0,1.891-.849,3.741,3.741,0,0,0,.666-2.364,3,3,0,0,0-.282-1.368,3.183,3.183,0,0,0-.679-.917,3.4,3.4,0,0,0-.825-.567c-.287-.134-.52-.239-.7-.316l-.384-.158c-.226-.09-.505-.223-.837-.4a4.019,4.019,0,0,1-.961-.725,4.3,4.3,0,0,1-.8-1.153,3.782,3.782,0,0,1-.34-1.686,4.746,4.746,0,0,1,.792-2.828,2.9,2.9,0,0,1,2.466-1.221,2.984,2.984,0,0,1,2.466,1.063,4.689,4.689,0,0,1,.816,2.986v.362h-.725v-.362a4.107,4.107,0,0,0-.656-2.556,2.276,2.276,0,0,0-1.9-.769,2.165,2.165,0,0,0-1.879.927,3.968,3.968,0,0,0-.678,2.4,3.162,3.162,0,0,0,.273,1.38,3.3,3.3,0,0,0,.667.951,3.512,3.512,0,0,0,.825.61,8.346,8.346,0,0,0,.77.362l.36.159c.2.076.461.191.793.35a3.986,3.986,0,0,1,.973.678,4.076,4.076,0,0,1,.825,1.12,3.6,3.6,0,0,1,.352,1.674,4.412,4.412,0,0,1-.816,2.761A2.929,2.929,0,0,1,256.13,167.322Z" transform="translate(-60.555 -152.075)"/><path class="c" d="M264.057,167.339V152.091h.7v15.248Z" transform="translate(-56.785 -152.07)"/><path class="c" d="M273.992,167.339a4.174,4.174,0,0,1-1.12-.159,2.452,2.452,0,0,1-1.051-.61,3.234,3.234,0,0,1-.77-1.233,5.917,5.917,0,0,1-.293-2.048v-7.171a4.842,4.842,0,0,1,.792-2.986,2.943,2.943,0,0,1,2.443-1.042,2.909,2.909,0,0,1,2.443,1.042,4.7,4.7,0,0,1,.814,2.986v7.171a5.946,5.946,0,0,1-.294,2.048,3.265,3.265,0,0,1-.769,1.233,2.472,2.472,0,0,1-1.052.61A4.238,4.238,0,0,1,273.992,167.339Zm0-14.546a2.186,2.186,0,0,0-1.879.79,4.075,4.075,0,0,0-.656,2.535v7.171a4.113,4.113,0,0,0,.656,2.556,2.219,2.219,0,0,0,1.879.793,2.324,2.324,0,0,0,1.9-.793,4.1,4.1,0,0,0,.634-2.556v-7.171a4.067,4.067,0,0,0-.634-2.535A2.29,2.29,0,0,0,273.992,152.793Z" transform="translate(-54.527 -152.07)"/><path class="c" d="M282.563,167.339h-.723V152.091h.61l5.249,13.054V152.091h.725v15.248h-.59l-5.271-13.052Z" transform="translate(-50.791 -152.07)"/><path class="c" d="M293.746,167.339h-.723l1.2-5.293v-.068l2.308-9.886h.564l3.484,15.248h-.723l-1.042-4.66h-4.026Zm3.055-13.324-1.833,7.962h3.688Z" transform="translate(-47.022 -152.07)"/><path class="c" d="M304.63,167.339V152.091h.723v14.547h5.113v.7Z" transform="translate(-43.109 -152.07)"/></g><g transform="translate(94.892)"><path class="d" d="M265.131,81.465l4.637,1.193v.074a45.7,45.7,0,1,1-44.5-56.128h31.9L240.261,48.358h-15.07a23.946,23.946,0,1,0,21.7,34.24Z" transform="translate(-179.569 -26.604)"/><path class="e" d="M258.244,74.28H213.759V51.458h25.858Z" transform="translate(-168.045 -18.226)"/><path class="f" d="M244.818,102.6c0,1.292-11.272,2.339-25.172,2.339s-25.173-1.047-25.173-2.339,11.27-2.339,25.173-2.339S244.818,101.307,244.818,102.6Z" transform="translate(-174.545 -1.777)"/></g></g></g></g></svg>